<svg id="visual" viewBox="0 0 960 540" width="960" height="540" xmlns="http://www.w3.org/2000/svg" xmlns:xlink="http://www.w3.org/1999/xlink" version="1.1"><g><g transform="translate(242 159)"><path d="M0 -12.8L6.4 -11.1L11.1 -6.4L12.8 0L11.1 6.4L6.4 11.1L0 12.8L-6.4 11.1L-11.1 6.4L-12.8 0L-11.1 -6.4L-6.4 -11.1Z" fill="none" stroke="#7f0000" stroke-width="1"></path></g><g transform="translate(348 327)"><path d="M0 -10L5 -8.7L8.7 -5L10 0L8.7 5L5 8.7L0 10L-5 8.7L-8.7 5L-10 0L-8.7 -5L-5 -8.7Z" fill="none" stroke="#7f0000" stroke-width="1"></path></g><g transform="translate(353 183)"><path d="M0 -5L2.5 -4.3L4.3 -2.5L5 0L4.3 2.5L2.5 4.3L0 5L-2.5 4.3L-4.3 2.5L-5 0L-4.3 -2.5L-2.5 -4.3Z" fill="none" stroke="#7f0000" stroke-width="1"></path></g><g transform="translate(548 443)"><path d="M0 -11L5.5 -9.5L9.5 -5.5L11 0L9.5 5.5L5.5 9.5L0 11L-5.5 9.5L-9.5 5.5L-11 0L-9.5 -5.5L-5.5 -9.5Z" stroke="#7f0000" fill="none" stroke-width="1"></path></g><g transform="translate(866 140)"><path d="M0 -7L3.5 -6.1L6.1 -3.5L7 0L6.1 3.5L3.5 6.1L0 7L-3.5 6.1L-6.1 3.5L-7 0L-6.1 -3.5L-3.5 -6.1Z" stroke="#7f0000" fill="none" stroke-width="1"></path></g><g transform="translate(12 316)"><path d="M0 -8L4 -6.9L6.9 -4L8 0L6.9 4L4 6.9L0 8L-4 6.9L-6.9 4L-8 0L-6.9 -4L-4 -6.9Z" stroke="#7f0000" fill="none" stroke-width="1"></path></g><g transform="translate(799 352)"><path d="M0 -8L4 -6.9L6.9 -4L8 0L6.9 4L4 6.9L0 8L-4 6.9L-6.9 4L-8 0L-6.9 -4L-4 -6.9Z" stroke="#7f0000" fill="none" stroke-width="1"></path></g><g transform="translate(923 105)"><path d="M0 -5L2.5 -4.3L4.3 -2.5L5 0L4.3 2.5L2.5 4.3L0 5L-2.5 4.3L-4.3 2.5L-5 0L-4.3 -2.5L-2.5 -4.3Z" stroke="#7f0000" fill="none" stroke-width="1"></path></g><g transform="translate(513 54)"><path d="M0 -11L5.5 -9.5L9.5 -5.5L11 0L9.5 5.5L5.5 9.5L0 11L-5.5 9.5L-9.5 5.5L-11 0L-9.5 -5.5L-5.5 -9.5Z" stroke="#7f0000" fill="none" stroke-width="1"></path></g><g transform="translate(599 167)"><path d="M0 -7L3.5 -6.1L6.1 -3.5L7 0L6.1 3.5L3.5 6.1L0 7L-3.5 6.1L-6.1 3.5L-7 0L-6.1 -3.5L-3.5 -6.1Z" stroke="#7f0000" fill="none" stroke-width="1"></path></g><g transform="translate(706 324)"><path d="M0 -6L3 -5.2L5.2 -3L6 0L5.2 3L3 5.2L0 6L-3 5.2L-5.2 3L-6 0L-5.2 -3L-3 -5.2Z" stroke="#7f0000" fill="none" stroke-width="1"></path></g><g transform="translate(206 350)"><path d="M0 -10L5 -8.7L8.7 -5L10 0L8.7 5L5 8.7L0 10L-5 8.7L-8.7 5L-10 0L-8.7 -5L-5 -8.7Z" stroke="#7f0000" fill="none" stroke-width="1"></path></g><g transform="translate(858 294)"><path d="M0 -7L3.5 -6.1L6.1 -3.5L7 0L6.1 3.5L3.5 6.1L0 7L-3.5 6.1L-6.1 3.5L-7 0L-6.1 -3.5L-3.5 -6.1Z" stroke="#7f0000" fill="none" stroke-width="1"></path></g><g transform="translate(918 31)"><path d="M0 -6L3 -5.2L5.2 -3L6 0L5.2 3L3 5.2L0 6L-3 5.2L-5.2 3L-6 0L-5.2 -3L-3 -5.2Z" stroke="#7f0000" fill="none" stroke-width="1"></path></g><g transform="translate(495 350)"><path d="M0 -4L2 -3.5L3.5 -2L4 0L3.5 2L2 3.5L0 4L-2 3.5L-3.5 2L-4 0L-3.5 -2L-2 -3.5Z" stroke="#7f0000" fill="none" stroke-width="1"></path></g><g transform="translate(288 262)"><path d="M0 -5L2.5 -4.3L4.3 -2.5L5 0L4.3 2.5L2.5 4.3L0 5L-2.5 4.3L-4.3 2.5L-5 0L-4.3 -2.5L-2.5 -4.3Z" stroke="#7f0000" fill="none" stroke-width="1"></path></g><g transform="translate(346 361)"><path d="M0 -11L5.5 -9.5L9.5 -5.5L11 0L9.5 5.5L5.5 9.5L0 11L-5.5 9.5L-9.5 5.5L-11 0L-9.5 -5.5L-5.5 -9.5Z" stroke="#7f0000" fill="none" stroke-width="1"></path></g><g transform="translate(716 140)"><path d="M0 -5L2.5 -4.3L4.3 -2.5L5 0L4.3 2.5L2.5 4.3L0 5L-2.5 4.3L-4.3 2.5L-5 0L-4.3 -2.5L-2.5 -4.3Z" stroke="#7f0000" fill="none" stroke-width="1"></path></g><g transform="translate(170 158)"><path d="M0 -7L3.5 -6.1L6.1 -3.5L7 0L6.1 3.5L3.5 6.1L0 7L-3.5 6.1L-6.1 3.5L-7 0L-6.1 -3.5L-3.5 -6.1Z" stroke="#7f0000" fill="none" stroke-width="1"></path></g><g transform="translate(579 240)"><path d="M0 -5L2.5 -4.3L4.3 -2.5L5 0L4.3 2.5L2.5 4.3L0 5L-2.5 4.3L-4.3 2.5L-5 0L-4.3 -2.5L-2.5 -4.3Z" stroke="#7f0000" fill="none" stroke-width="1"></path></g><g transform="translate(375 28)"><path d="M0 -9L4.5 -7.8L7.8 -4.5L9 0L7.8 4.5L4.5 7.8L0 9L-4.5 7.8L-7.8 4.5L-9 0L-7.8 -4.5L-4.5 -7.8Z" stroke="#7f0000" fill="none" stroke-width="1"></path></g><g transform="translate(357 269)"><path d="M0 -3L1.5 -2.6L2.6 -1.5L3 0L2.6 1.5L1.5 2.6L0 3L-1.5 2.6L-2.6 1.5L-3 0L-2.6 -1.5L-1.5 -2.6Z" stroke="#7f0000" fill="none" stroke-width="1"></path></g><g transform="translate(738 400)"><path d="M0 -10L5 -8.7L8.7 -5L10 0L8.7 5L5 8.7L0 10L-5 8.7L-8.7 5L-10 0L-8.7 -5L-5 -8.7Z" stroke="#7f0000" fill="none" stroke-width="1"></path></g><g transform="translate(703 475)"><path d="M0 -6L3 -5.2L5.2 -3L6 0L5.2 3L3 5.2L0 6L-3 5.2L-5.2 3L-6 0L-5.2 -3L-3 -5.2Z" stroke="#7f0000" fill="none" stroke-width="1"></path></g><g transform="translate(660 140)"><path d="M0 -3L1.5 -2.6L2.6 -1.5L3 0L2.6 1.5L1.5 2.6L0 3L-1.5 2.6L-2.6 1.5L-3 0L-2.6 -1.5L-1.5 -2.6Z" stroke="#7f0000" fill="none" stroke-width="1"></path></g><g transform="translate(345 80)"><path d="M0 -7L3.5 -6.1L6.1 -3.5L7 0L6.1 3.5L3.5 6.1L0 7L-3.5 6.1L-6.1 3.5L-7 0L-6.1 -3.5L-3.5 -6.1Z" stroke="#7f0000" fill="none" stroke-width="1"></path></g><g transform="translate(751 146)"><path d="M0 -4L2 -3.5L3.5 -2L4 0L3.5 2L2 3.5L0 4L-2 3.5L-3.5 2L-4 0L-3.5 -2L-2 -3.5Z" stroke="#7f0000" fill="none" stroke-width="1"></path></g><g transform="translate(309 318)"><path d="M0 -5L2.5 -4.3L4.3 -2.5L5 0L4.3 2.5L2.5 4.3L0 5L-2.5 4.3L-4.3 2.5L-5 0L-4.3 -2.5L-2.5 -4.3Z" stroke="#7f0000" fill="none" stroke-width="1"></path></g><g transform="translate(194 274)"><path d="M0 -10L5 -8.7L8.7 -5L10 0L8.7 5L5 8.7L0 10L-5 8.7L-8.7 5L-10 0L-8.7 -5L-5 -8.7Z" stroke="#7f0000" fill="none" stroke-width="1"></path></g><g transform="translate(239 322)"><path d="M0 -4L2 -3.5L3.5 -2L4 0L3.5 2L2 3.5L0 4L-2 3.5L-3.5 2L-4 0L-3.5 -2L-2 -3.5Z" stroke="#7f0000" fill="none" stroke-width="1"></path></g><g transform="translate(616 194)"><path d="M0 -9L4.5 -7.8L7.8 -4.5L9 0L7.8 4.5L4.5 7.8L0 9L-4.5 7.8L-7.8 4.5L-9 0L-7.8 -4.5L-4.5 -7.8Z" stroke="#7f0000" fill="none" stroke-width="1"></path></g><g transform="translate(432 210)"><path d="M0 -9L4.5 -7.8L7.8 -4.5L9 0L7.8 4.5L4.5 7.8L0 9L-4.5 7.8L-7.8 4.5L-9 0L-7.8 -4.5L-4.5 -7.8Z" stroke="#7f0000" fill="none" stroke-width="1"></path></g><g transform="translate(943 496)"><path d="M0 -5L2.5 -4.3L4.3 -2.5L5 0L4.3 2.5L2.5 4.3L0 5L-2.5 4.3L-4.3 2.5L-5 0L-4.3 -2.5L-2.5 -4.3Z" stroke="#7f0000" fill="none" stroke-width="1"></path></g><g transform="translate(835 307)"><path d="M0 -6L3 -5.2L5.2 -3L6 0L5.2 3L3 5.2L0 6L-3 5.2L-5.2 3L-6 0L-5.2 -3L-3 -5.2Z" stroke="#7f0000" fill="none" stroke-width="1"></path></g><g transform="translate(312 70)"><path d="M0 -8L4 -6.9L6.9 -4L8 0L6.9 4L4 6.9L0 8L-4 6.9L-6.9 4L-8 0L-6.9 -4L-4 -6.9Z" stroke="#7f0000" fill="none" stroke-width="1"></path></g><g transform="translate(101 270)"><path d="M0 -6L3 -5.2L5.2 -3L6 0L5.2 3L3 5.2L0 6L-3 5.2L-5.2 3L-6 0L-5.2 -3L-3 -5.2Z" stroke="#7f0000" fill="none" stroke-width="1"></path></g><g transform="translate(112 417)"><path d="M0 -11L5.5 -9.5L9.5 -5.5L11 0L9.5 5.5L5.5 9.5L0 11L-5.5 9.5L-9.5 5.5L-11 0L-9.5 -5.5L-5.5 -9.5Z" stroke="#7f0000" fill="none" stroke-width="1"></path></g><g transform="translate(925 260)"><path d="M0 -10L5 -8.7L8.7 -5L10 0L8.7 5L5 8.7L0 10L-5 8.7L-8.7 5L-10 0L-8.7 -5L-5 -8.7Z" stroke="#7f0000" fill="none" stroke-width="1"></path></g><g transform="translate(470 91)"><path d="M0 -7L3.5 -6.1L6.1 -3.5L7 0L6.1 3.5L3.5 6.1L0 7L-3.5 6.1L-6.1 3.5L-7 0L-6.1 -3.5L-3.5 -6.1Z" stroke="#7f0000" fill="none" stroke-width="1"></path></g><g transform="translate(339 130)"><path d="M0 -11L5.5 -9.5L9.5 -5.5L11 0L9.5 5.5L5.5 9.5L0 11L-5.5 9.5L-9.5 5.5L-11 0L-9.5 -5.5L-5.5 -9.5Z" stroke="#7f0000" fill="none" stroke-width="1"></path></g><g transform="translate(566 465)"><path d="M0 -8L4 -6.9L6.9 -4L8 0L6.9 4L4 6.9L0 8L-4 6.9L-6.9 4L-8 0L-6.9 -4L-4 -6.9Z" stroke="#7f0000" fill="none" stroke-width="1"></path></g><g transform="translate(530 417)"><path d="M0 -3L1.5 -2.6L2.6 -1.5L3 0L2.6 1.5L1.5 2.6L0 3L-1.5 2.6L-2.6 1.5L-3 0L-2.6 -1.5L-1.5 -2.6Z" stroke="#7f0000" fill="none" stroke-width="1"></path></g><g transform="translate(86 311)"><path d="M0 -7L3.5 -6.1L6.1 -3.5L7 0L6.1 3.5L3.5 6.1L0 7L-3.5 6.1L-6.1 3.5L-7 0L-6.1 -3.5L-3.5 -6.1Z" stroke="#7f0000" fill="none" stroke-width="1"></path></g><g transform="translate(471 149)"><path d="M0 -8L4 -6.9L6.9 -4L8 0L6.9 4L4 6.9L0 8L-4 6.9L-6.9 4L-8 0L-6.9 -4L-4 -6.9Z" stroke="#7f0000" fill="none" stroke-width="1"></path></g><g transform="translate(4 428)"><path d="M0 -6L3 -5.2L5.2 -3L6 0L5.2 3L3 5.2L0 6L-3 5.2L-5.2 3L-6 0L-5.2 -3L-3 -5.2Z" stroke="#7f0000" fill="none" stroke-width="1"></path></g><g transform="translate(674 529)"><path d="M0 -9L4.5 -7.8L7.8 -4.5L9 0L7.8 4.5L4.5 7.8L0 9L-4.5 7.8L-7.8 4.5L-9 0L-7.8 -4.5L-4.5 -7.8Z" stroke="#7f0000" fill="none" stroke-width="1"></path></g><g transform="translate(876 456)"><path d="M0 -6L3 -5.2L5.2 -3L6 0L5.2 3L3 5.2L0 6L-3 5.2L-5.2 3L-6 0L-5.2 -3L-3 -5.2Z" stroke="#7f0000" fill="none" stroke-width="1"></path></g><g transform="translate(7 244)"><path d="M0 -6L3 -5.2L5.2 -3L6 0L5.2 3L3 5.2L0 6L-3 5.2L-5.2 3L-6 0L-5.2 -3L-3 -5.2Z" stroke="#7f0000" fill="none" stroke-width="1"></path></g><g transform="translate(861 489)"><path d="M0 -5L2.5 -4.3L4.3 -2.5L5 0L4.3 2.5L2.5 4.3L0 5L-2.5 4.3L-4.3 2.5L-5 0L-4.3 -2.5L-2.5 -4.3Z" stroke="#7f0000" fill="none" stroke-width="1"></path></g><g transform="translate(39 281)"><path d="M0 -9L4.5 -7.8L7.8 -4.5L9 0L7.8 4.5L4.5 7.8L0 9L-4.5 7.8L-7.8 4.5L-9 0L-7.8 -4.5L-4.5 -7.8Z" stroke="#7f0000" fill="none" stroke-width="1"></path></g><g transform="translate(396 460)"><path d="M0 -8L4 -6.9L6.9 -4L8 0L6.9 4L4 6.9L0 8L-4 6.9L-6.9 4L-8 0L-6.9 -4L-4 -6.9Z" stroke="#7f0000" fill="none" stroke-width="1"></path></g><g transform="translate(70 472)"><path d="M0 -7L3.5 -6.1L6.1 -3.5L7 0L6.1 3.5L3.5 6.1L0 7L-3.5 6.1L-6.1 3.5L-7 0L-6.1 -3.5L-3.5 -6.1Z" stroke="#7f0000" fill="none" stroke-width="1"></path></g><g transform="translate(581 72)"><path d="M0 -9L4.5 -7.8L7.8 -4.5L9 0L7.8 4.5L4.5 7.8L0 9L-4.5 7.8L-7.8 4.5L-9 0L-7.8 -4.5L-4.5 -7.8Z" stroke="#7f0000" fill="none" stroke-width="1"></path></g><g transform="translate(430 410)"><path d="M0 -4L2 -3.5L3.5 -2L4 0L3.5 2L2 3.5L0 4L-2 3.5L-3.5 2L-4 0L-3.5 -2L-2 -3.5Z" stroke="#7f0000" fill="none" stroke-width="1"></path></g><g transform="translate(51 405)"><path d="M0 -6L3 -5.2L5.2 -3L6 0L5.2 3L3 5.2L0 6L-3 5.2L-5.2 3L-6 0L-5.2 -3L-3 -5.2Z" stroke="#7f0000" fill="none" stroke-width="1"></path></g><g transform="translate(830 277)"><path d="M0 -3L1.5 -2.6L2.6 -1.5L3 0L2.6 1.5L1.5 2.6L0 3L-1.5 2.6L-2.6 1.5L-3 0L-2.6 -1.5L-1.5 -2.6Z" stroke="#7f0000" fill="none" stroke-width="1"></path></g><g transform="translate(48 357)"><path d="M0 -5L2.5 -4.3L4.3 -2.5L5 0L4.3 2.5L2.5 4.3L0 5L-2.5 4.3L-4.3 2.5L-5 0L-4.3 -2.5L-2.5 -4.3Z" stroke="#7f0000" fill="none" stroke-width="1"></path></g><g transform="translate(951 42)"><path d="M0 -7L3.5 -6.1L6.1 -3.5L7 0L6.1 3.5L3.5 6.1L0 7L-3.5 6.1L-6.1 3.5L-7 0L-6.1 -3.5L-3.5 -6.1Z" stroke="#7f0000" fill="none" stroke-width="1"></path></g><g transform="translate(447 349)"><path d="M0 -6L3 -5.2L5.2 -3L6 0L5.2 3L3 5.2L0 6L-3 5.2L-5.2 3L-6 0L-5.2 -3L-3 -5.2Z" stroke="#7f0000" fill="none" stroke-width="1"></path></g><g transform="translate(199 59)"><path d="M0 -4L2 -3.5L3.5 -2L4 0L3.5 2L2 3.5L0 4L-2 3.5L-3.5 2L-4 0L-3.5 -2L-2 -3.5Z" stroke="#7f0000" fill="none" stroke-width="1"></path></g><g transform="translate(753 262)"><path d="M0 -6L3 -5.2L5.2 -3L6 0L5.2 3L3 5.2L0 6L-3 5.2L-5.2 3L-6 0L-5.2 -3L-3 -5.2Z" stroke="#7f0000" fill="none" stroke-width="1"></path></g><g transform="translate(479 390)"><path d="M0 -3L1.5 -2.6L2.6 -1.5L3 0L2.6 1.5L1.5 2.6L0 3L-1.5 2.6L-2.6 1.5L-3 0L-2.6 -1.5L-1.5 -2.6Z" stroke="#7f0000" fill="none" stroke-width="1"></path></g><g transform="translate(649 337)"><path d="M0 -7L3.5 -6.1L6.1 -3.5L7 0L6.1 3.5L3.5 6.1L0 7L-3.5 6.1L-6.1 3.5L-7 0L-6.1 -3.5L-3.5 -6.1Z" stroke="#7f0000" fill="none" stroke-width="1"></path></g><g transform="translate(872 42)"><path d="M0 -9L4.5 -7.8L7.8 -4.5L9 0L7.8 4.5L4.5 7.8L0 9L-4.5 7.8L-7.8 4.5L-9 0L-7.8 -4.5L-4.5 -7.8Z" stroke="#7f0000" fill="none" stroke-width="1"></path></g><g transform="translate(767 430)"><path d="M0 -7L3.5 -6.1L6.1 -3.5L7 0L6.1 3.5L3.5 6.1L0 7L-3.5 6.1L-6.1 3.5L-7 0L-6.1 -3.5L-3.5 -6.1Z" stroke="#7f0000" fill="none" stroke-width="1"></path></g><g transform="translate(170 492)"><path d="M0 -8L4 -6.9L6.9 -4L8 0L6.9 4L4 6.9L0 8L-4 6.9L-6.9 4L-8 0L-6.9 -4L-4 -6.9Z" stroke="#7f0000" fill="none" stroke-width="1"></path></g><g transform="translate(213 246)"><path d="M0 -6L3 -5.2L5.2 -3L6 0L5.2 3L3 5.2L0 6L-3 5.2L-5.2 3L-6 0L-5.2 -3L-3 -5.2Z" stroke="#7f0000" fill="none" stroke-width="1"></path></g><g transform="translate(515 230)"><path d="M0 -7L3.5 -6.1L6.1 -3.5L7 0L6.1 3.5L3.5 6.1L0 7L-3.5 6.1L-6.1 3.5L-7 0L-6.1 -3.5L-3.5 -6.1Z" stroke="#7f0000" fill="none" stroke-width="1"></path></g><g transform="translate(187 223)"><path d="M0 -10L5 -8.7L8.7 -5L10 0L8.7 5L5 8.7L0 10L-5 8.7L-8.7 5L-10 0L-8.7 -5L-5 -8.7Z" stroke="#7f0000" fill="none" stroke-width="1"></path></g><g transform="translate(61 522)"><path d="M0 -11L5.5 -9.5L9.5 -5.5L11 0L9.5 5.5L5.5 9.5L0 11L-5.5 9.5L-9.5 5.5L-11 0L-9.5 -5.5L-5.5 -9.5Z" stroke="#7f0000" fill="none" stroke-width="1"></path></g><g transform="translate(300 461)"><path d="M0 -7L3.5 -6.1L6.1 -3.5L7 0L6.1 3.5L3.5 6.1L0 7L-3.5 6.1L-6.1 3.5L-7 0L-6.1 -3.5L-3.5 -6.1Z" stroke="#7f0000" fill="none" stroke-width="1"></path></g><g transform="translate(514 292)"><path d="M0 -9L4.5 -7.8L7.8 -4.5L9 0L7.8 4.5L4.5 7.8L0 9L-4.5 7.8L-7.8 4.5L-9 0L-7.8 -4.5L-4.5 -7.8Z" stroke="#7f0000" fill="none" stroke-width="1"></path></g><g transform="translate(670 55)"><path d="M0 -3L1.5 -2.6L2.6 -1.5L3 0L2.6 1.5L1.5 2.6L0 3L-1.5 2.6L-2.6 1.5L-3 0L-2.6 -1.5L-1.5 -2.6Z" stroke="#7f0000" fill="none" stroke-width="1"></path></g><g transform="translate(905 155)"><path d="M0 -6L3 -5.2L5.2 -3L6 0L5.2 3L3 5.2L0 6L-3 5.2L-5.2 3L-6 0L-5.2 -3L-3 -5.2Z" stroke="#7f0000" fill="none" stroke-width="1"></path></g><g transform="translate(476 480)"><path d="M0 -4L2 -3.5L3.5 -2L4 0L3.5 2L2 3.5L0 4L-2 3.5L-3.5 2L-4 0L-3.5 -2L-2 -3.5Z" stroke="#7f0000" fill="none" stroke-width="1"></path></g><g transform="translate(891 353)"><path d="M0 -5L2.5 -4.3L4.3 -2.5L5 0L4.3 2.5L2.5 4.3L0 5L-2.5 4.3L-4.3 2.5L-5 0L-4.3 -2.5L-2.5 -4.3Z" stroke="#7f0000" fill="none" stroke-width="1"></path></g><g transform="translate(553 500)"><path d="M0 -3L1.5 -2.6L2.6 -1.5L3 0L2.6 1.5L1.5 2.6L0 3L-1.5 2.6L-2.6 1.5L-3 0L-2.6 -1.5L-1.5 -2.6Z" stroke="#7f0000" fill="none" stroke-width="1"></path></g><g transform="translate(233 538)"><path d="M0 -10L5 -8.7L8.7 -5L10 0L8.7 5L5 8.7L0 10L-5 8.7L-8.7 5L-10 0L-8.7 -5L-5 -8.7Z" stroke="#7f0000" fill="none" stroke-width="1"></path></g><g transform="translate(300 206)"><path d="M0 -9L4.5 -7.8L7.8 -4.5L9 0L7.8 4.5L4.5 7.8L0 9L-4.5 7.8L-7.8 4.5L-9 0L-7.8 -4.5L-4.5 -7.8Z" stroke="#7f0000" fill="none" stroke-width="1"></path></g><g transform="translate(846 394)"><path d="M0 -4L2 -3.5L3.5 -2L4 0L3.5 2L2 3.5L0 4L-2 3.5L-3.5 2L-4 0L-3.5 -2L-2 -3.5Z" stroke="#7f0000" fill="none" stroke-width="1"></path></g><g transform="translate(122 101)"><path d="M0 -10L5 -8.7L8.7 -5L10 0L8.7 5L5 8.7L0 10L-5 8.7L-8.7 5L-10 0L-8.7 -5L-5 -8.7Z" stroke="#7f0000" fill="none" stroke-width="1"></path></g><g transform="translate(914 407)"><path d="M0 -9L4.5 -7.8L7.8 -4.5L9 0L7.8 4.5L4.5 7.8L0 9L-4.5 7.8L-7.8 4.5L-9 0L-7.8 -4.5L-4.5 -7.8Z" stroke="#7f0000" fill="none" stroke-width="1"></path></g><g transform="translate(785 35)"><path d="M0 -3L1.5 -2.6L2.6 -1.5L3 0L2.6 1.5L1.5 2.6L0 3L-1.5 2.6L-2.6 1.5L-3 0L-2.6 -1.5L-1.5 -2.6Z" stroke="#7f0000" fill="none" stroke-width="1"></path></g><g transform="translate(647 401)"><path d="M0 -3L1.5 -2.6L2.6 -1.5L3 0L2.6 1.5L1.5 2.6L0 3L-1.5 2.6L-2.6 1.5L-3 0L-2.6 -1.5L-1.5 -2.6Z" stroke="#7f0000" fill="none" stroke-width="1"></path></g><g transform="translate(7 512)"><path d="M0 -8L4 -6.9L6.9 -4L8 0L6.9 4L4 6.9L0 8L-4 6.9L-6.9 4L-8 0L-6.9 -4L-4 -6.9Z" stroke="#7f0000" fill="none" stroke-width="1"></path></g><g transform="translate(81 433)"><path d="M0 -7L3.5 -6.1L6.1 -3.5L7 0L6.1 3.5L3.5 6.1L0 7L-3.5 6.1L-6.1 3.5L-7 0L-6.1 -3.5L-3.5 -6.1Z" stroke="#7f0000" fill="none" stroke-width="1"></path></g><g transform="translate(585 336)"><path d="M0 -6L3 -5.2L5.2 -3L6 0L5.2 3L3 5.2L0 6L-3 5.2L-5.2 3L-6 0L-5.2 -3L-3 -5.2Z" stroke="#7f0000" fill="none" stroke-width="1"></path></g><g transform="translate(918 374)"><path d="M0 -7L3.5 -6.1L6.1 -3.5L7 0L6.1 3.5L3.5 6.1L0 7L-3.5 6.1L-6.1 3.5L-7 0L-6.1 -3.5L-3.5 -6.1Z" stroke="#7f0000" fill="none" stroke-width="1"></path></g><g transform="translate(217 482)"><path d="M0 -8L4 -6.9L6.9 -4L8 0L6.9 4L4 6.9L0 8L-4 6.9L-6.9 4L-8 0L-6.9 -4L-4 -6.9Z" stroke="#7f0000" fill="none" stroke-width="1"></path></g><g transform="translate(62 379)"><path d="M0 -8L4 -6.9L6.9 -4L8 0L6.9 4L4 6.9L0 8L-4 6.9L-6.9 4L-8 0L-6.9 -4L-4 -6.9Z" stroke="#7f0000" fill="none" stroke-width="1"></path></g><g transform="translate(293 122)"><path d="M0 -3L1.5 -2.6L2.6 -1.5L3 0L2.6 1.5L1.5 2.6L0 3L-1.5 2.6L-2.6 1.5L-3 0L-2.6 -1.5L-1.5 -2.6Z" stroke="#7f0000" fill="none" stroke-width="1"></path></g><g transform="translate(763 227)"><path d="M0 -6L3 -5.2L5.2 -3L6 0L5.2 3L3 5.2L0 6L-3 5.2L-5.2 3L-6 0L-5.2 -3L-3 -5.2Z" stroke="#7f0000" fill="none" stroke-width="1"></path></g><g transform="translate(210 107)"><path d="M0 -7L3.5 -6.1L6.1 -3.5L7 0L6.1 3.5L3.5 6.1L0 7L-3.5 6.1L-6.1 3.5L-7 0L-6.1 -3.5L-3.5 -6.1Z" stroke="#7f0000" fill="none" stroke-width="1"></path></g><g transform="translate(250 204)"><path d="M0 -5L2.5 -4.3L4.3 -2.5L5 0L4.3 2.5L2.5 4.3L0 5L-2.5 4.3L-4.3 2.5L-5 0L-4.3 -2.5L-2.5 -4.3Z" stroke="#7f0000" fill="none" stroke-width="1"></path></g><g transform="translate(548 142)"><path d="M0 -10L5 -8.7L8.7 -5L10 0L8.7 5L5 8.7L0 10L-5 8.7L-8.7 5L-10 0L-8.7 -5L-5 -8.7Z" stroke="#7f0000" fill="none" stroke-width="1"></path></g><g transform="translate(102 493)"><path d="M0 -5L2.5 -4.3L4.3 -2.5L5 0L4.3 2.5L2.5 4.3L0 5L-2.5 4.3L-4.3 2.5L-5 0L-4.3 -2.5L-2.5 -4.3Z" stroke="#7f0000" fill="none" stroke-width="1"></path></g><g transform="translate(398 536)"><path d="M0 -8L4 -6.9L6.9 -4L8 0L6.9 4L4 6.9L0 8L-4 6.9L-6.9 4L-8 0L-6.9 -4L-4 -6.9Z" stroke="#7f0000" fill="none" stroke-width="1"></path></g><g transform="translate(155 134)"><path d="M0 -7L3.5 -6.1L6.1 -3.5L7 0L6.1 3.5L3.5 6.1L0 7L-3.5 6.1L-6.1 3.5L-7 0L-6.1 -3.5L-3.5 -6.1Z" stroke="#7f0000" fill="none" stroke-width="1"></path></g><g transform="translate(500 125)"><path d="M0 -9L4.5 -7.8L7.8 -4.5L9 0L7.8 4.5L4.5 7.8L0 9L-4.5 7.8L-7.8 4.5L-9 0L-7.8 -4.5L-4.5 -7.8Z" stroke="#7f0000" fill="none" stroke-width="1"></path></g><g transform="translate(903 433)"><path d="M0 -4L2 -3.5L3.5 -2L4 0L3.5 2L2 3.5L0 4L-2 3.5L-3.5 2L-4 0L-3.5 -2L-2 -3.5Z" stroke="#7f0000" fill="none" stroke-width="1"></path></g><g transform="translate(549 214)"><path d="M0 -7L3.5 -6.1L6.1 -3.5L7 0L6.1 3.5L3.5 6.1L0 7L-3.5 6.1L-6.1 3.5L-7 0L-6.1 -3.5L-3.5 -6.1Z" stroke="#7f0000" fill="none" stroke-width="1"></path></g><g transform="translate(420 434)"><path d="M0 -6L3 -5.2L5.2 -3L6 0L5.2 3L3 5.2L0 6L-3 5.2L-5.2 3L-6 0L-5.2 -3L-3 -5.2Z" stroke="#7f0000" fill="none" stroke-width="1"></path></g><g transform="translate(801 481)"><path d="M0 -8L4 -6.9L6.9 -4L8 0L6.9 4L4 6.9L0 8L-4 6.9L-6.9 4L-8 0L-6.9 -4L-4 -6.9Z" stroke="#7f0000" fill="none" stroke-width="1"></path></g><g transform="translate(328 219)"><path d="M0 -11L5.5 -9.5L9.5 -5.5L11 0L9.5 5.5L5.5 9.5L0 11L-5.5 9.5L-9.5 5.5L-11 0L-9.5 -5.5L-5.5 -9.5Z" stroke="#7f0000" fill="none" stroke-width="1"></path></g><g transform="translate(743 536)"><path d="M0 -3L1.5 -2.6L2.6 -1.5L3 0L2.6 1.5L1.5 2.6L0 3L-1.5 2.6L-2.6 1.5L-3 0L-2.6 -1.5L-1.5 -2.6Z" stroke="#7f0000" fill="none" stroke-width="1"></path></g><g transform="translate(768 458)"><path d="M0 -6L3 -5.2L5.2 -3L6 0L5.2 3L3 5.2L0 6L-3 5.2L-5.2 3L-6 0L-5.2 -3L-3 -5.2Z" stroke="#7f0000" fill="none" stroke-width="1"></path></g><g transform="translate(297 507)"><path d="M0 -6L3 -5.2L5.2 -3L6 0L5.2 3L3 5.2L0 6L-3 5.2L-5.2 3L-6 0L-5.2 -3L-3 -5.2Z" stroke="#7f0000" fill="none" stroke-width="1"></path></g><g transform="translate(398 87)"><path d="M0 -4L2 -3.5L3.5 -2L4 0L3.5 2L2 3.5L0 4L-2 3.5L-3.5 2L-4 0L-3.5 -2L-2 -3.5Z" stroke="#7f0000" fill="none" stroke-width="1"></path></g><g transform="translate(162 56)"><path d="M0 -5L2.5 -4.3L4.3 -2.5L5 0L4.3 2.5L2.5 4.3L0 5L-2.5 4.3L-4.3 2.5L-5 0L-4.3 -2.5L-2.5 -4.3Z" stroke="#7f0000" fill="none" stroke-width="1"></path></g><g transform="translate(241 251)"><path d="M0 -8L4 -6.9L6.9 -4L8 0L6.9 4L4 6.9L0 8L-4 6.9L-6.9 4L-8 0L-6.9 -4L-4 -6.9Z" stroke="#7f0000" fill="none" stroke-width="1"></path></g><g transform="translate(465 37)"><path d="M0 -9L4.5 -7.8L7.8 -4.5L9 0L7.8 4.5L4.5 7.8L0 9L-4.5 7.8L-7.8 4.5L-9 0L-7.8 -4.5L-4.5 -7.8Z" stroke="#7f0000" fill="none" stroke-width="1"></path></g><g transform="translate(487 414)"><path d="M0 -10L5 -8.7L8.7 -5L10 0L8.7 5L5 8.7L0 10L-5 8.7L-8.7 5L-10 0L-8.7 -5L-5 -8.7Z" stroke="#7f0000" fill="none" stroke-width="1"></path></g><g transform="translate(418 111)"><path d="M0 -3L1.5 -2.6L2.6 -1.5L3 0L2.6 1.5L1.5 2.6L0 3L-1.5 2.6L-2.6 1.5L-3 0L-2.6 -1.5L-1.5 -2.6Z" stroke="#7f0000" fill="none" stroke-width="1"></path></g><g transform="translate(950 5)"><path d="M0 -5L2.5 -4.3L4.3 -2.5L5 0L4.3 2.5L2.5 4.3L0 5L-2.5 4.3L-4.3 2.5L-5 0L-4.3 -2.5L-2.5 -4.3Z" stroke="#7f0000" fill="none" stroke-width="1"></path></g><g transform="translate(328 257)"><path d="M0 -7L3.5 -6.1L6.1 -3.5L7 0L6.1 3.5L3.5 6.1L0 7L-3.5 6.1L-6.1 3.5L-7 0L-6.1 -3.5L-3.5 -6.1Z" stroke="#7f0000" fill="none" stroke-width="1"></path></g><g transform="translate(401 253)"><path d="M0 -8L4 -6.9L6.9 -4L8 0L6.9 4L4 6.9L0 8L-4 6.9L-6.9 4L-8 0L-6.9 -4L-4 -6.9Z" stroke="#7f0000" fill="none" stroke-width="1"></path></g><g transform="translate(486 257)"><path d="M0 -5L2.5 -4.3L4.3 -2.5L5 0L4.3 2.5L2.5 4.3L0 5L-2.5 4.3L-4.3 2.5L-5 0L-4.3 -2.5L-2.5 -4.3Z" stroke="#7f0000" fill="none" stroke-width="1"></path></g><g transform="translate(602 482)"><path d="M0 -8L4 -6.9L6.9 -4L8 0L6.9 4L4 6.9L0 8L-4 6.9L-6.9 4L-8 0L-6.9 -4L-4 -6.9Z" stroke="#7f0000" fill="none" stroke-width="1"></path></g><g transform="translate(449 3)"><path d="M0 -10L5 -8.7L8.7 -5L10 0L8.7 5L5 8.7L0 10L-5 8.7L-8.7 5L-10 0L-8.7 -5L-5 -8.7Z" stroke="#7f0000" fill="none" stroke-width="1"></path></g><g transform="translate(812 329)"><path d="M0 -8L4 -6.9L6.9 -4L8 0L6.9 4L4 6.9L0 8L-4 6.9L-6.9 4L-8 0L-6.9 -4L-4 -6.9Z" stroke="#7f0000" fill="none" stroke-width="1"></path></g><g transform="translate(690 266)"><path d="M0 -8L4 -6.9L6.9 -4L8 0L6.9 4L4 6.9L0 8L-4 6.9L-6.9 4L-8 0L-6.9 -4L-4 -6.9Z" stroke="#7f0000" fill="none" stroke-width="1"></path></g><g transform="translate(52 177)"><path d="M0 -6L3 -5.2L5.2 -3L6 0L5.2 3L3 5.2L0 6L-3 5.2L-5.2 3L-6 0L-5.2 -3L-3 -5.2Z" stroke="#7f0000" fill="none" stroke-width="1"></path></g><g transform="translate(358 2)"><path d="M0 -7L3.5 -6.1L6.1 -3.5L7 0L6.1 3.5L3.5 6.1L0 7L-3.5 6.1L-6.1 3.5L-7 0L-6.1 -3.5L-3.5 -6.1Z" stroke="#7f0000" fill="none" stroke-width="1"></path></g><g transform="translate(893 314)"><path d="M0 -7L3.5 -6.1L6.1 -3.5L7 0L6.1 3.5L3.5 6.1L0 7L-3.5 6.1L-6.1 3.5L-7 0L-6.1 -3.5L-3.5 -6.1Z" stroke="#7f0000" fill="none" stroke-width="1"></path></g><g transform="translate(426 48)"><path d="M0 -10L5 -8.7L8.7 -5L10 0L8.7 5L5 8.7L0 10L-5 8.7L-8.7 5L-10 0L-8.7 -5L-5 -8.7Z" stroke="#7f0000" fill="none" stroke-width="1"></path></g><g transform="translate(230 58)"><path d="M0 -11L5.5 -9.5L9.5 -5.5L11 0L9.5 5.5L5.5 9.5L0 11L-5.5 9.5L-9.5 5.5L-11 0L-9.5 -5.5L-5.5 -9.5Z" stroke="#7f0000" fill="none" stroke-width="1"></path></g><g transform="translate(619 276)"><path d="M0 -9L4.5 -7.8L7.8 -4.5L9 0L7.8 4.5L4.5 7.8L0 9L-4.5 7.8L-7.8 4.5L-9 0L-7.8 -4.5L-4.5 -7.8Z" stroke="#7f0000" fill="none" stroke-width="1"></path></g><g transform="translate(297 356)"><path d="M0 -5L2.5 -4.3L4.3 -2.5L5 0L4.3 2.5L2.5 4.3L0 5L-2.5 4.3L-4.3 2.5L-5 0L-4.3 -2.5L-2.5 -4.3Z" stroke="#7f0000" fill="none" stroke-width="1"></path></g><g transform="translate(869 104)"><path d="M0 -4L2 -3.5L3.5 -2L4 0L3.5 2L2 3.5L0 4L-2 3.5L-3.5 2L-4 0L-3.5 -2L-2 -3.5Z" stroke="#7f0000" fill="none" stroke-width="1"></path></g><g transform="translate(159 5)"><path d="M0 -5L2.5 -4.3L4.3 -2.5L5 0L4.3 2.5L2.5 4.3L0 5L-2.5 4.3L-4.3 2.5L-5 0L-4.3 -2.5L-2.5 -4.3Z" stroke="#7f0000" fill="none" stroke-width="1"></path></g><g transform="translate(424 525)"><path d="M0 -5L2.5 -4.3L4.3 -2.5L5 0L4.3 2.5L2.5 4.3L0 5L-2.5 4.3L-4.3 2.5L-5 0L-4.3 -2.5L-2.5 -4.3Z" stroke="#7f0000" fill="none" stroke-width="1"></path></g><g transform="translate(191 381)"><path d="M0 -8L4 -6.9L6.9 -4L8 0L6.9 4L4 6.9L0 8L-4 6.9L-6.9 4L-8 0L-6.9 -4L-4 -6.9Z" stroke="#7f0000" fill="none" stroke-width="1"></path></g><g transform="translate(179 105)"><path d="M0 -6L3 -5.2L5.2 -3L6 0L5.2 3L3 5.2L0 6L-3 5.2L-5.2 3L-6 0L-5.2 -3L-3 -5.2Z" stroke="#7f0000" fill="none" stroke-width="1"></path></g><g transform="translate(470 449)"><path d="M0 -9L4.5 -7.8L7.8 -4.5L9 0L7.8 4.5L4.5 7.8L0 9L-4.5 7.8L-7.8 4.5L-9 0L-7.8 -4.5L-4.5 -7.8Z" stroke="#7f0000" fill="none" stroke-width="1"></path></g><g transform="translate(807 255)"><path d="M0 -10L5 -8.7L8.7 -5L10 0L8.7 5L5 8.7L0 10L-5 8.7L-8.7 5L-10 0L-8.7 -5L-5 -8.7Z" stroke="#7f0000" fill="none" stroke-width="1"></path></g><g transform="translate(772 359)"><path d="M0 -8L4 -6.9L6.9 -4L8 0L6.9 4L4 6.9L0 8L-4 6.9L-6.9 4L-8 0L-6.9 -4L-4 -6.9Z" stroke="#7f0000" fill="none" stroke-width="1"></path></g><g transform="translate(887 217)"><path d="M0 -11L5.5 -9.5L9.5 -5.5L11 0L9.5 5.5L5.5 9.5L0 11L-5.5 9.5L-9.5 5.5L-11 0L-9.5 -5.5L-5.5 -9.5Z" stroke="#7f0000" fill="none" stroke-width="1"></path></g><g transform="translate(798 423)"><path d="M0 -10L5 -8.7L8.7 -5L10 0L8.7 5L5 8.7L0 10L-5 8.7L-8.7 5L-10 0L-8.7 -5L-5 -8.7Z" stroke="#7f0000" fill="none" stroke-width="1"></path></g><g transform="translate(26 479)"><path d="M0 -6L3 -5.2L5.2 -3L6 0L5.2 3L3 5.2L0 6L-3 5.2L-5.2 3L-6 0L-5.2 -3L-3 -5.2Z" stroke="#7f0000" fill="none" stroke-width="1"></path></g><g transform="translate(627 66)"><path d="M0 -10L5 -8.7L8.7 -5L10 0L8.7 5L5 8.7L0 10L-5 8.7L-8.7 5L-10 0L-8.7 -5L-5 -8.7Z" stroke="#7f0000" fill="none" stroke-width="1"></path></g><g transform="translate(831 368)"><path d="M0 -9L4.5 -7.8L7.8 -4.5L9 0L7.8 4.5L4.5 7.8L0 9L-4.5 7.8L-7.8 4.5L-9 0L-7.8 -4.5L-4.5 -7.8Z" stroke="#7f0000" fill="none" stroke-width="1"></path></g><g transform="translate(63 45)"><path d="M0 -9L4.5 -7.8L7.8 -4.5L9 0L7.8 4.5L4.5 7.8L0 9L-4.5 7.8L-7.8 4.5L-9 0L-7.8 -4.5L-4.5 -7.8Z" stroke="#7f0000" fill="none" stroke-width="1"></path></g><g transform="translate(828 11)"><path d="M0 -7L3.5 -6.1L6.1 -3.5L7 0L6.1 3.5L3.5 6.1L0 7L-3.5 6.1L-6.1 3.5L-7 0L-6.1 -3.5L-3.5 -6.1Z" stroke="#7f0000" fill="none" stroke-width="1"></path></g><g transform="translate(823 145)"><path d="M0 -7L3.5 -6.1L6.1 -3.5L7 0L6.1 3.5L3.5 6.1L0 7L-3.5 6.1L-6.1 3.5L-7 0L-6.1 -3.5L-3.5 -6.1Z" stroke="#7f0000" fill="none" stroke-width="1"></path></g><g transform="translate(335 506)"><path d="M0 -9L4.5 -7.8L7.8 -4.5L9 0L7.8 4.5L4.5 7.8L0 9L-4.5 7.8L-7.8 4.5L-9 0L-7.8 -4.5L-4.5 -7.8Z" stroke="#7f0000" fill="none" stroke-width="1"></path></g><g transform="translate(212 175)"><path d="M0 -11L5.5 -9.5L9.5 -5.5L11 0L9.5 5.5L5.5 9.5L0 11L-5.5 9.5L-9.5 5.5L-11 0L-9.5 -5.5L-5.5 -9.5Z" stroke="#7f0000" fill="none" stroke-width="1"></path></g><g transform="translate(407 8)"><path d="M0 -10L5 -8.7L8.7 -5L10 0L8.7 5L5 8.7L0 10L-5 8.7L-8.7 5L-10 0L-8.7 -5L-5 -8.7Z" stroke="#7f0000" fill="none" stroke-width="1"></path></g><g transform="translate(590 300)"><path d="M0 -11L5.5 -9.5L9.5 -5.5L11 0L9.5 5.5L5.5 9.5L0 11L-5.5 9.5L-9.5 5.5L-11 0L-9.5 -5.5L-5.5 -9.5Z" stroke="#7f0000" fill="none" stroke-width="1"></path></g><g transform="translate(160 301)"><path d="M0 -4L2 -3.5L3.5 -2L4 0L3.5 2L2 3.5L0 4L-2 3.5L-3.5 2L-4 0L-3.5 -2L-2 -3.5Z" stroke="#7f0000" fill="none" stroke-width="1"></path></g><g transform="translate(371 457)"><path d="M0 -9L4.5 -7.8L7.8 -4.5L9 0L7.8 4.5L4.5 7.8L0 9L-4.5 7.8L-7.8 4.5L-9 0L-7.8 -4.5L-4.5 -7.8Z" stroke="#7f0000" fill="none" stroke-width="1"></path></g><g transform="translate(194 129)"><path d="M0 -6L3 -5.2L5.2 -3L6 0L5.2 3L3 5.2L0 6L-3 5.2L-5.2 3L-6 0L-5.2 -3L-3 -5.2Z" stroke="#7f0000" fill="none" stroke-width="1"></path></g><g transform="translate(111 374)"><path d="M0 -3L1.5 -2.6L2.6 -1.5L3 0L2.6 1.5L1.5 2.6L0 3L-1.5 2.6L-2.6 1.5L-3 0L-2.6 -1.5L-1.5 -2.6Z" stroke="#7f0000" fill="none" stroke-width="1"></path></g><g transform="translate(741 65)"><path d="M0 -5L2.5 -4.3L4.3 -2.5L5 0L4.3 2.5L2.5 4.3L0 5L-2.5 4.3L-4.3 2.5L-5 0L-4.3 -2.5L-2.5 -4.3Z" stroke="#7f0000" fill="none" stroke-width="1"></path></g><g transform="translate(252 426)"><path d="M0 -4L2 -3.5L3.5 -2L4 0L3.5 2L2 3.5L0 4L-2 3.5L-3.5 2L-4 0L-3.5 -2L-2 -3.5Z" stroke="#7f0000" fill="none" stroke-width="1"></path></g><g transform="translate(750 180)"><path d="M0 -6L3 -5.2L5.2 -3L6 0L5.2 3L3 5.2L0 6L-3 5.2L-5.2 3L-6 0L-5.2 -3L-3 -5.2Z" stroke="#7f0000" fill="none" stroke-width="1"></path></g><g transform="translate(712 27)"><path d="M0 -10L5 -8.7L8.7 -5L10 0L8.7 5L5 8.7L0 10L-5 8.7L-8.7 5L-10 0L-8.7 -5L-5 -8.7Z" stroke="#7f0000" fill="none" stroke-width="1"></path></g><g transform="translate(267 79)"><path d="M0 -5L2.5 -4.3L4.3 -2.5L5 0L4.3 2.5L2.5 4.3L0 5L-2.5 4.3L-4.3 2.5L-5 0L-4.3 -2.5L-2.5 -4.3Z" stroke="#7f0000" fill="none" stroke-width="1"></path></g><g transform="translate(950 420)"><path d="M0 -4L2 -3.5L3.5 -2L4 0L3.5 2L2 3.5L0 4L-2 3.5L-3.5 2L-4 0L-3.5 -2L-2 -3.5Z" stroke="#7f0000" fill="none" stroke-width="1"></path></g><g transform="translate(509 483)"><path d="M0 -8L4 -6.9L6.9 -4L8 0L6.9 4L4 6.9L0 8L-4 6.9L-6.9 4L-8 0L-6.9 -4L-4 -6.9Z" stroke="#7f0000" fill="none" stroke-width="1"></path></g><g transform="translate(265 503)"><path d="M0 -11L5.5 -9.5L9.5 -5.5L11 0L9.5 5.5L5.5 9.5L0 11L-5.5 9.5L-9.5 5.5L-11 0L-9.5 -5.5L-5.5 -9.5Z" stroke="#7f0000" fill="none" stroke-width="1"></path></g><g transform="translate(537 311)"><path d="M0 -4L2 -3.5L3.5 -2L4 0L3.5 2L2 3.5L0 4L-2 3.5L-3.5 2L-4 0L-3.5 -2L-2 -3.5Z" stroke="#7f0000" fill="none" stroke-width="1"></path></g><g transform="translate(636 233)"><path d="M0 -8L4 -6.9L6.9 -4L8 0L6.9 4L4 6.9L0 8L-4 6.9L-6.9 4L-8 0L-6.9 -4L-4 -6.9Z" stroke="#7f0000" fill="none" stroke-width="1"></path></g><g transform="translate(548 66)"><path d="M0 -3L1.5 -2.6L2.6 -1.5L3 0L2.6 1.5L1.5 2.6L0 3L-1.5 2.6L-2.6 1.5L-3 0L-2.6 -1.5L-1.5 -2.6Z" stroke="#7f0000" fill="none" stroke-width="1"></path></g><g transform="translate(390 290)"><path d="M0 -7L3.5 -6.1L6.1 -3.5L7 0L6.1 3.5L3.5 6.1L0 7L-3.5 6.1L-6.1 3.5L-7 0L-6.1 -3.5L-3.5 -6.1Z" stroke="#7f0000" fill="none" stroke-width="1"></path></g><g transform="translate(139 240)"><path d="M0 -11L5.5 -9.5L9.5 -5.5L11 0L9.5 5.5L5.5 9.5L0 11L-5.5 9.5L-9.5 5.5L-11 0L-9.5 -5.5L-5.5 -9.5Z" stroke="#7f0000" fill="none" stroke-width="1"></path></g><g transform="translate(934 334)"><path d="M0 -6L3 -5.2L5.2 -3L6 0L5.2 3L3 5.2L0 6L-3 5.2L-5.2 3L-6 0L-5.2 -3L-3 -5.2Z" stroke="#7f0000" fill="none" stroke-width="1"></path></g><g transform="translate(17 1)"><path d="M0 -9L4.5 -7.8L7.8 -4.5L9 0L7.8 4.5L4.5 7.8L0 9L-4.5 7.8L-7.8 4.5L-9 0L-7.8 -4.5L-4.5 -7.8Z" stroke="#7f0000" fill="none" stroke-width="1"></path></g><g transform="translate(528 178)"><path d="M0 -6L3 -5.2L5.2 -3L6 0L5.2 3L3 5.2L0 6L-3 5.2L-5.2 3L-6 0L-5.2 -3L-3 -5.2Z" stroke="#7f0000" fill="none" stroke-width="1"></path></g><g transform="translate(332 471)"><path d="M0 -6L3 -5.2L5.2 -3L6 0L5.2 3L3 5.2L0 6L-3 5.2L-5.2 3L-6 0L-5.2 -3L-3 -5.2Z" stroke="#7f0000" fill="none" stroke-width="1"></path></g><g transform="translate(614 133)"><path d="M0 -10L5 -8.7L8.7 -5L10 0L8.7 5L5 8.7L0 10L-5 8.7L-8.7 5L-10 0L-8.7 -5L-5 -8.7Z" stroke="#7f0000" fill="none" stroke-width="1"></path></g><g transform="translate(348 400)"><path d="M0 -11L5.5 -9.5L9.5 -5.5L11 0L9.5 5.5L5.5 9.5L0 11L-5.5 9.5L-9.5 5.5L-11 0L-9.5 -5.5L-5.5 -9.5Z" stroke="#7f0000" fill="none" stroke-width="1"></path></g><g transform="translate(851 343)"><path d="M0 -3L1.5 -2.6L2.6 -1.5L3 0L2.6 1.5L1.5 2.6L0 3L-1.5 2.6L-2.6 1.5L-3 0L-2.6 -1.5L-1.5 -2.6Z" stroke="#7f0000" fill="none" stroke-width="1"></path></g><g transform="translate(554 272)"><path d="M0 -7L3.5 -6.1L6.1 -3.5L7 0L6.1 3.5L3.5 6.1L0 7L-3.5 6.1L-6.1 3.5L-7 0L-6.1 -3.5L-3.5 -6.1Z" stroke="#7f0000" fill="none" stroke-width="1"></path></g><g transform="translate(668 420)"><path d="M0 -10L5 -8.7L8.7 -5L10 0L8.7 5L5 8.7L0 10L-5 8.7L-8.7 5L-10 0L-8.7 -5L-5 -8.7Z" stroke="#7f0000" fill="none" stroke-width="1"></path></g><g transform="translate(575 186)"><path d="M0 -8L4 -6.9L6.9 -4L8 0L6.9 4L4 6.9L0 8L-4 6.9L-6.9 4L-8 0L-6.9 -4L-4 -6.9Z" stroke="#7f0000" fill="none" stroke-width="1"></path></g><g transform="translate(718 372)"><path d="M0 -7L3.5 -6.1L6.1 -3.5L7 0L6.1 3.5L3.5 6.1L0 7L-3.5 6.1L-6.1 3.5L-7 0L-6.1 -3.5L-3.5 -6.1Z" stroke="#7f0000" fill="none" stroke-width="1"></path></g><g transform="translate(275 13)"><path d="M0 -8L4 -6.9L6.9 -4L8 0L6.9 4L4 6.9L0 8L-4 6.9L-6.9 4L-8 0L-6.9 -4L-4 -6.9Z" stroke="#7f0000" fill="none" stroke-width="1"></path></g><g transform="translate(780 96)"><path d="M0 -4L2 -3.5L3.5 -2L4 0L3.5 2L2 3.5L0 4L-2 3.5L-3.5 2L-4 0L-3.5 -2L-2 -3.5Z" stroke="#7f0000" fill="none" stroke-width="1"></path></g><g transform="translate(431 247)"><path d="M0 -9L4.5 -7.8L7.8 -4.5L9 0L7.8 4.5L4.5 7.8L0 9L-4.5 7.8L-7.8 4.5L-9 0L-7.8 -4.5L-4.5 -7.8Z" stroke="#7f0000" fill="none" stroke-width="1"></path></g><g transform="translate(476 306)"><path d="M0 -8L4 -6.9L6.9 -4L8 0L6.9 4L4 6.9L0 8L-4 6.9L-6.9 4L-8 0L-6.9 -4L-4 -6.9Z" stroke="#7f0000" fill="none" stroke-width="1"></path></g><g transform="translate(853 220)"><path d="M0 -11L5.5 -9.5L9.5 -5.5L11 0L9.5 5.5L5.5 9.5L0 11L-5.5 9.5L-9.5 5.5L-11 0L-9.5 -5.5L-5.5 -9.5Z" stroke="#7f0000" fill="none" stroke-width="1"></path></g><g transform="translate(895 86)"><path d="M0 -5L2.5 -4.3L4.3 -2.5L5 0L4.3 2.5L2.5 4.3L0 5L-2.5 4.3L-4.3 2.5L-5 0L-4.3 -2.5L-2.5 -4.3Z" stroke="#7f0000" fill="none" stroke-width="1"></path></g><g transform="translate(60 214)"><path d="M0 -8L4 -6.9L6.9 -4L8 0L6.9 4L4 6.9L0 8L-4 6.9L-6.9 4L-8 0L-6.9 -4L-4 -6.9Z" stroke="#7f0000" fill="none" stroke-width="1"></path></g><g transform="translate(446 129)"><path d="M0 -3L1.5 -2.6L2.6 -1.5L3 0L2.6 1.5L1.5 2.6L0 3L-1.5 2.6L-2.6 1.5L-3 0L-2.6 -1.5L-1.5 -2.6Z" stroke="#7f0000" fill="none" stroke-width="1"></path></g><g transform="translate(13 98)"><path d="M0 -10L5 -8.7L8.7 -5L10 0L8.7 5L5 8.7L0 10L-5 8.7L-8.7 5L-10 0L-8.7 -5L-5 -8.7Z" stroke="#7f0000" fill="none" stroke-width="1"></path></g><g transform="translate(219 385)"><path d="M0 -8L4 -6.9L6.9 -4L8 0L6.9 4L4 6.9L0 8L-4 6.9L-6.9 4L-8 0L-6.9 -4L-4 -6.9Z" stroke="#7f0000" fill="none" stroke-width="1"></path></g><g transform="translate(529 531)"><path d="M0 -4L2 -3.5L3.5 -2L4 0L3.5 2L2 3.5L0 4L-2 3.5L-3.5 2L-4 0L-3.5 -2L-2 -3.5Z" stroke="#7f0000" fill="none" stroke-width="1"></path></g><g transform="translate(847 192)"><path d="M0 -9L4.5 -7.8L7.8 -4.5L9 0L7.8 4.5L4.5 7.8L0 9L-4.5 7.8L-7.8 4.5L-9 0L-7.8 -4.5L-4.5 -7.8Z" stroke="#7f0000" fill="none" stroke-width="1"></path></g><g transform="translate(887 383)"><path d="M0 -6L3 -5.2L5.2 -3L6 0L5.2 3L3 5.2L0 6L-3 5.2L-5.2 3L-6 0L-5.2 -3L-3 -5.2Z" stroke="#7f0000" fill="none" stroke-width="1"></path></g><g transform="translate(846 54)"><path d="M0 -4L2 -3.5L3.5 -2L4 0L3.5 2L2 3.5L0 4L-2 3.5L-3.5 2L-4 0L-3.5 -2L-2 -3.5Z" stroke="#7f0000" fill="none" stroke-width="1"></path></g><g transform="translate(446 163)"><path d="M0 -10L5 -8.7L8.7 -5L10 0L8.7 5L5 8.7L0 10L-5 8.7L-8.7 5L-10 0L-8.7 -5L-5 -8.7Z" stroke="#7f0000" fill="none" stroke-width="1"></path></g><g transform="translate(818 462)"><path d="M0 -8L4 -6.9L6.9 -4L8 0L6.9 4L4 6.9L0 8L-4 6.9L-6.9 4L-8 0L-6.9 -4L-4 -6.9Z" stroke="#7f0000" fill="none" stroke-width="1"></path></g><g transform="translate(192 317)"><path d="M0 -7L3.5 -6.1L6.1 -3.5L7 0L6.1 3.5L3.5 6.1L0 7L-3.5 6.1L-6.1 3.5L-7 0L-6.1 -3.5L-3.5 -6.1Z" stroke="#7f0000" fill="none" stroke-width="1"></path></g><g transform="translate(720 497)"><path d="M0 -3L1.5 -2.6L2.6 -1.5L3 0L2.6 1.5L1.5 2.6L0 3L-1.5 2.6L-2.6 1.5L-3 0L-2.6 -1.5L-1.5 -2.6Z" stroke="#7f0000" fill="none" stroke-width="1"></path></g><g transform="translate(419 302)"><path d="M0 -8L4 -6.9L6.9 -4L8 0L6.9 4L4 6.9L0 8L-4 6.9L-6.9 4L-8 0L-6.9 -4L-4 -6.9Z" stroke="#7f0000" fill="none" stroke-width="1"></path></g><g transform="translate(577 115)"><path d="M0 -3L1.5 -2.6L2.6 -1.5L3 0L2.6 1.5L1.5 2.6L0 3L-1.5 2.6L-2.6 1.5L-3 0L-2.6 -1.5L-1.5 -2.6Z" stroke="#7f0000" fill="none" stroke-width="1"></path></g><g transform="translate(778 253)"><path d="M0 -4L2 -3.5L3.5 -2L4 0L3.5 2L2 3.5L0 4L-2 3.5L-3.5 2L-4 0L-3.5 -2L-2 -3.5Z" stroke="#7f0000" fill="none" stroke-width="1"></path></g><g transform="translate(823 233)"><path d="M0 -6L3 -5.2L5.2 -3L6 0L5.2 3L3 5.2L0 6L-3 5.2L-5.2 3L-6 0L-5.2 -3L-3 -5.2Z" stroke="#7f0000" fill="none" stroke-width="1"></path></g><g transform="translate(610 104)"><path d="M0 -11L5.5 -9.5L9.5 -5.5L11 0L9.5 5.5L5.5 9.5L0 11L-5.5 9.5L-9.5 5.5L-11 0L-9.5 -5.5L-5.5 -9.5Z" stroke="#7f0000" fill="none" stroke-width="1"></path></g><g transform="translate(749 30)"><path d="M0 -7L3.5 -6.1L6.1 -3.5L7 0L6.1 3.5L3.5 6.1L0 7L-3.5 6.1L-6.1 3.5L-7 0L-6.1 -3.5L-3.5 -6.1Z" stroke="#7f0000" fill="none" stroke-width="1"></path></g><g transform="translate(37 232)"><path d="M0 -11L5.5 -9.5L9.5 -5.5L11 0L9.5 5.5L5.5 9.5L0 11L-5.5 9.5L-9.5 5.5L-11 0L-9.5 -5.5L-5.5 -9.5Z" stroke="#7f0000" fill="none" stroke-width="1"></path></g><g transform="translate(728 228)"><path d="M0 -8L4 -6.9L6.9 -4L8 0L6.9 4L4 6.9L0 8L-4 6.9L-6.9 4L-8 0L-6.9 -4L-4 -6.9Z" stroke="#7f0000" fill="none" stroke-width="1"></path></g><g transform="translate(364 229)"><path d="M0 -4L2 -3.5L3.5 -2L4 0L3.5 2L2 3.5L0 4L-2 3.5L-3.5 2L-4 0L-3.5 -2L-2 -3.5Z" stroke="#7f0000" fill="none" stroke-width="1"></path></g><g transform="translate(596 6)"><path d="M0 -11L5.5 -9.5L9.5 -5.5L11 0L9.5 5.5L5.5 9.5L0 11L-5.5 9.5L-9.5 5.5L-11 0L-9.5 -5.5L-5.5 -9.5Z" stroke="#7f0000" fill="none" stroke-width="1"></path></g><g transform="translate(868 169)"><path d="M0 -3L1.5 -2.6L2.6 -1.5L3 0L2.6 1.5L1.5 2.6L0 3L-1.5 2.6L-2.6 1.5L-3 0L-2.6 -1.5L-1.5 -2.6Z" stroke="#7f0000" fill="none" stroke-width="1"></path></g><g transform="translate(397 54)"><path d="M0 -6L3 -5.2L5.2 -3L6 0L5.2 3L3 5.2L0 6L-3 5.2L-5.2 3L-6 0L-5.2 -3L-3 -5.2Z" stroke="#7f0000" fill="none" stroke-width="1"></path></g><g transform="translate(934 195)"><path d="M0 -8L4 -6.9L6.9 -4L8 0L6.9 4L4 6.9L0 8L-4 6.9L-6.9 4L-8 0L-6.9 -4L-4 -6.9Z" stroke="#7f0000" fill="none" stroke-width="1"></path></g><g transform="translate(457 224)"><path d="M0 -7L3.5 -6.1L6.1 -3.5L7 0L6.1 3.5L3.5 6.1L0 7L-3.5 6.1L-6.1 3.5L-7 0L-6.1 -3.5L-3.5 -6.1Z" stroke="#7f0000" fill="none" stroke-width="1"></path></g><g transform="translate(636 376)"><path d="M0 -4L2 -3.5L3.5 -2L4 0L3.5 2L2 3.5L0 4L-2 3.5L-3.5 2L-4 0L-3.5 -2L-2 -3.5Z" stroke="#7f0000" fill="none" stroke-width="1"></path></g><g transform="translate(770 509)"><path d="M0 -8L4 -6.9L6.9 -4L8 0L6.9 4L4 6.9L0 8L-4 6.9L-6.9 4L-8 0L-6.9 -4L-4 -6.9Z" stroke="#7f0000" fill="none" stroke-width="1"></path></g><g transform="translate(441 77)"><path d="M0 -3L1.5 -2.6L2.6 -1.5L3 0L2.6 1.5L1.5 2.6L0 3L-1.5 2.6L-2.6 1.5L-3 0L-2.6 -1.5L-1.5 -2.6Z" stroke="#7f0000" fill="none" stroke-width="1"></path></g><g transform="translate(267 341)"><path d="M0 -9L4.5 -7.8L7.8 -4.5L9 0L7.8 4.5L4.5 7.8L0 9L-4.5 7.8L-7.8 4.5L-9 0L-7.8 -4.5L-4.5 -7.8Z" stroke="#7f0000" fill="none" stroke-width="1"></path></g><g transform="translate(910 470)"><path d="M0 -9L4.5 -7.8L7.8 -4.5L9 0L7.8 4.5L4.5 7.8L0 9L-4.5 7.8L-7.8 4.5L-9 0L-7.8 -4.5L-4.5 -7.8Z" stroke="#7f0000" fill="none" stroke-width="1"></path></g><g transform="translate(262 46)"><path d="M0 -10L5 -8.7L8.7 -5L10 0L8.7 5L5 8.7L0 10L-5 8.7L-8.7 5L-10 0L-8.7 -5L-5 -8.7Z" stroke="#7f0000" fill="none" stroke-width="1"></path></g><g transform="translate(630 426)"><path d="M0 -8L4 -6.9L6.9 -4L8 0L6.9 4L4 6.9L0 8L-4 6.9L-6.9 4L-8 0L-6.9 -4L-4 -6.9Z" stroke="#7f0000" fill="none" stroke-width="1"></path></g><g transform="translate(713 418)"><path d="M0 -10L5 -8.7L8.7 -5L10 0L8.7 5L5 8.7L0 10L-5 8.7L-8.7 5L-10 0L-8.7 -5L-5 -8.7Z" stroke="#7f0000" fill="none" stroke-width="1"></path></g><g transform="translate(156 393)"><path d="M0 -5L2.5 -4.3L4.3 -2.5L5 0L4.3 2.5L2.5 4.3L0 5L-2.5 4.3L-4.3 2.5L-5 0L-4.3 -2.5L-2.5 -4.3Z" stroke="#7f0000" fill="none" stroke-width="1"></path></g><g transform="translate(776 390)"><path d="M0 -11L5.5 -9.5L9.5 -5.5L11 0L9.5 5.5L5.5 9.5L0 11L-5.5 9.5L-9.5 5.5L-11 0L-9.5 -5.5L-5.5 -9.5Z" stroke="#7f0000" fill="none" stroke-width="1"></path></g><g transform="translate(810 302)"><path d="M0 -4L2 -3.5L3.5 -2L4 0L3.5 2L2 3.5L0 4L-2 3.5L-3.5 2L-4 0L-3.5 -2L-2 -3.5Z" stroke="#7f0000" fill="none" stroke-width="1"></path></g><g transform="translate(652 283)"><path d="M0 -11L5.5 -9.5L9.5 -5.5L11 0L9.5 5.5L5.5 9.5L0 11L-5.5 9.5L-9.5 5.5L-11 0L-9.5 -5.5L-5.5 -9.5Z" stroke="#7f0000" fill="none" stroke-width="1"></path></g><g transform="translate(889 488)"><path d="M0 -3L1.5 -2.6L2.6 -1.5L3 0L2.6 1.5L1.5 2.6L0 3L-1.5 2.6L-2.6 1.5L-3 0L-2.6 -1.5L-1.5 -2.6Z" stroke="#7f0000" fill="none" stroke-width="1"></path></g><g transform="translate(536 366)"><path d="M0 -7L3.5 -6.1L6.1 -3.5L7 0L6.1 3.5L3.5 6.1L0 7L-3.5 6.1L-6.1 3.5L-7 0L-6.1 -3.5L-3.5 -6.1Z" stroke="#7f0000" fill="none" stroke-width="1"></path></g><g transform="translate(122 448)"><path d="M0 -7L3.5 -6.1L6.1 -3.5L7 0L6.1 3.5L3.5 6.1L0 7L-3.5 6.1L-6.1 3.5L-7 0L-6.1 -3.5L-3.5 -6.1Z" stroke="#7f0000" fill="none" stroke-width="1"></path></g><g transform="translate(518 264)"><path d="M0 -8L4 -6.9L6.9 -4L8 0L6.9 4L4 6.9L0 8L-4 6.9L-6.9 4L-8 0L-6.9 -4L-4 -6.9Z" stroke="#7f0000" fill="none" stroke-width="1"></path></g><g transform="translate(530 97)"><path d="M0 -4L2 -3.5L3.5 -2L4 0L3.5 2L2 3.5L0 4L-2 3.5L-3.5 2L-4 0L-3.5 -2L-2 -3.5Z" stroke="#7f0000" fill="none" stroke-width="1"></path></g><g transform="translate(77 114)"><path d="M0 -3L1.5 -2.6L2.6 -1.5L3 0L2.6 1.5L1.5 2.6L0 3L-1.5 2.6L-2.6 1.5L-3 0L-2.6 -1.5L-1.5 -2.6Z" stroke="#7f0000" fill="none" stroke-width="1"></path></g><g transform="translate(916 289)"><path d="M0 -3L1.5 -2.6L2.6 -1.5L3 0L2.6 1.5L1.5 2.6L0 3L-1.5 2.6L-2.6 1.5L-3 0L-2.6 -1.5L-1.5 -2.6Z" stroke="#7f0000" fill="none" stroke-width="1"></path></g><g transform="translate(688 350)"><path d="M0 -9L4.5 -7.8L7.8 -4.5L9 0L7.8 4.5L4.5 7.8L0 9L-4.5 7.8L-7.8 4.5L-9 0L-7.8 -4.5L-4.5 -7.8Z" stroke="#7f0000" fill="none" stroke-width="1"></path></g><g transform="translate(70 238)"><path d="M0 -4L2 -3.5L3.5 -2L4 0L3.5 2L2 3.5L0 4L-2 3.5L-3.5 2L-4 0L-3.5 -2L-2 -3.5Z" stroke="#7f0000" fill="none" stroke-width="1"></path></g><g transform="translate(323 26)"><path d="M0 -10L5 -8.7L8.7 -5L10 0L8.7 5L5 8.7L0 10L-5 8.7L-8.7 5L-10 0L-8.7 -5L-5 -8.7Z" stroke="#7f0000" fill="none" stroke-width="1"></path></g><g transform="translate(670 209)"><path d="M0 -4L2 -3.5L3.5 -2L4 0L3.5 2L2 3.5L0 4L-2 3.5L-3.5 2L-4 0L-3.5 -2L-2 -3.5Z" stroke="#7f0000" fill="none" stroke-width="1"></path></g><g transform="translate(8 454)"><path d="M0 -5L2.5 -4.3L4.3 -2.5L5 0L4.3 2.5L2.5 4.3L0 5L-2.5 4.3L-4.3 2.5L-5 0L-4.3 -2.5L-2.5 -4.3Z" stroke="#7f0000" fill="none" stroke-width="1"></path></g><g transform="translate(106 125)"><path d="M0 -11L5.5 -9.5L9.5 -5.5L11 0L9.5 5.5L5.5 9.5L0 11L-5.5 9.5L-9.5 5.5L-11 0L-9.5 -5.5L-5.5 -9.5Z" stroke="#7f0000" fill="none" stroke-width="1"></path></g><g transform="translate(651 22)"><path d="M0 -8L4 -6.9L6.9 -4L8 0L6.9 4L4 6.9L0 8L-4 6.9L-6.9 4L-8 0L-6.9 -4L-4 -6.9Z" stroke="#7f0000" fill="none" stroke-width="1"></path></g><g transform="translate(460 410)"><path d="M0 -6L3 -5.2L5.2 -3L6 0L5.2 3L3 5.2L0 6L-3 5.2L-5.2 3L-6 0L-5.2 -3L-3 -5.2Z" stroke="#7f0000" fill="none" stroke-width="1"></path></g><g transform="translate(176 191)"><path d="M0 -4L2 -3.5L3.5 -2L4 0L3.5 2L2 3.5L0 4L-2 3.5L-3.5 2L-4 0L-3.5 -2L-2 -3.5Z" stroke="#7f0000" fill="none" stroke-width="1"></path></g><g transform="translate(557 97)"><path d="M0 -8L4 -6.9L6.9 -4L8 0L6.9 4L4 6.9L0 8L-4 6.9L-6.9 4L-8 0L-6.9 -4L-4 -6.9Z" stroke="#7f0000" fill="none" stroke-width="1"></path></g><g transform="translate(239 17)"><path d="M0 -6L3 -5.2L5.2 -3L6 0L5.2 3L3 5.2L0 6L-3 5.2L-5.2 3L-6 0L-5.2 -3L-3 -5.2Z" stroke="#7f0000" fill="none" stroke-width="1"></path></g><g transform="translate(3 539)"><path d="M0 -9L4.5 -7.8L7.8 -4.5L9 0L7.8 4.5L4.5 7.8L0 9L-4.5 7.8L-7.8 4.5L-9 0L-7.8 -4.5L-4.5 -7.8Z" stroke="#7f0000" fill="none" stroke-width="1"></path></g><g transform="translate(452 495)"><path d="M0 -4L2 -3.5L3.5 -2L4 0L3.5 2L2 3.5L0 4L-2 3.5L-3.5 2L-4 0L-3.5 -2L-2 -3.5Z" stroke="#7f0000" fill="none" stroke-width="1"></path></g><g transform="translate(405 153)"><path d="M0 -9L4.5 -7.8L7.8 -4.5L9 0L7.8 4.5L4.5 7.8L0 9L-4.5 7.8L-7.8 4.5L-9 0L-7.8 -4.5L-4.5 -7.8Z" stroke="#7f0000" fill="none" stroke-width="1"></path></g><g transform="translate(376 154)"><path d="M0 -4L2 -3.5L3.5 -2L4 0L3.5 2L2 3.5L0 4L-2 3.5L-3.5 2L-4 0L-3.5 -2L-2 -3.5Z" stroke="#7f0000" fill="none" stroke-width="1"></path></g><g transform="translate(17 356)"><path d="M0 -7L3.5 -6.1L6.1 -3.5L7 0L6.1 3.5L3.5 6.1L0 7L-3.5 6.1L-6.1 3.5L-7 0L-6.1 -3.5L-3.5 -6.1Z" stroke="#7f0000" fill="none" stroke-width="1"></path></g><g transform="translate(659 254)"><path d="M0 -3L1.5 -2.6L2.6 -1.5L3 0L2.6 1.5L1.5 2.6L0 3L-1.5 2.6L-2.6 1.5L-3 0L-2.6 -1.5L-1.5 -2.6Z" stroke="#7f0000" fill="none" stroke-width="1"></path></g><g transform="translate(811 102)"><path d="M0 -4L2 -3.5L3.5 -2L4 0L3.5 2L2 3.5L0 4L-2 3.5L-3.5 2L-4 0L-3.5 -2L-2 -3.5Z" stroke="#7f0000" fill="none" stroke-width="1"></path></g><g transform="translate(682 104)"><path d="M0 -3L1.5 -2.6L2.6 -1.5L3 0L2.6 1.5L1.5 2.6L0 3L-1.5 2.6L-2.6 1.5L-3 0L-2.6 -1.5L-1.5 -2.6Z" stroke="#7f0000" fill="none" stroke-width="1"></path></g><g transform="translate(135 507)"><path d="M0 -6L3 -5.2L5.2 -3L6 0L5.2 3L3 5.2L0 6L-3 5.2L-5.2 3L-6 0L-5.2 -3L-3 -5.2Z" stroke="#7f0000" fill="none" stroke-width="1"></path></g><g transform="translate(175 354)"><path d="M0 -5L2.5 -4.3L4.3 -2.5L5 0L4.3 2.5L2.5 4.3L0 5L-2.5 4.3L-4.3 2.5L-5 0L-4.3 -2.5L-2.5 -4.3Z" stroke="#7f0000" fill="none" stroke-width="1"></path></g><g transform="translate(86 539)"><path d="M0 -10L5 -8.7L8.7 -5L10 0L8.7 5L5 8.7L0 10L-5 8.7L-8.7 5L-10 0L-8.7 -5L-5 -8.7Z" stroke="#7f0000" fill="none" stroke-width="1"></path></g><g transform="translate(741 441)"><path d="M0 -10L5 -8.7L8.7 -5L10 0L8.7 5L5 8.7L0 10L-5 8.7L-8.7 5L-10 0L-8.7 -5L-5 -8.7Z" stroke="#7f0000" fill="none" stroke-width="1"></path></g><g transform="translate(494 207)"><path d="M0 -9L4.5 -7.8L7.8 -4.5L9 0L7.8 4.5L4.5 7.8L0 9L-4.5 7.8L-7.8 4.5L-9 0L-7.8 -4.5L-4.5 -7.8Z" stroke="#7f0000" fill="none" stroke-width="1"></path></g><g transform="translate(498 519)"><path d="M0 -10L5 -8.7L8.7 -5L10 0L8.7 5L5 8.7L0 10L-5 8.7L-8.7 5L-10 0L-8.7 -5L-5 -8.7Z" stroke="#7f0000" fill="none" stroke-width="1"></path></g><g transform="translate(732 344)"><path d="M0 -4L2 -3.5L3.5 -2L4 0L3.5 2L2 3.5L0 4L-2 3.5L-3.5 2L-4 0L-3.5 -2L-2 -3.5Z" stroke="#7f0000" fill="none" stroke-width="1"></path></g><g transform="translate(119 301)"><path d="M0 -4L2 -3.5L3.5 -2L4 0L3.5 2L2 3.5L0 4L-2 3.5L-3.5 2L-4 0L-3.5 -2L-2 -3.5Z" stroke="#7f0000" fill="none" stroke-width="1"></path></g><g transform="translate(127 167)"><path d="M0 -10L5 -8.7L8.7 -5L10 0L8.7 5L5 8.7L0 10L-5 8.7L-8.7 5L-10 0L-8.7 -5L-5 -8.7Z" stroke="#7f0000" fill="none" stroke-width="1"></path></g><g transform="translate(311 176)"><path d="M0 -3L1.5 -2.6L2.6 -1.5L3 0L2.6 1.5L1.5 2.6L0 3L-1.5 2.6L-2.6 1.5L-3 0L-2.6 -1.5L-1.5 -2.6Z" stroke="#7f0000" fill="none" stroke-width="1"></path></g><g transform="translate(916 497)"><path d="M0 -7L3.5 -6.1L6.1 -3.5L7 0L6.1 3.5L3.5 6.1L0 7L-3.5 6.1L-6.1 3.5L-7 0L-6.1 -3.5L-3.5 -6.1Z" stroke="#7f0000" fill="none" stroke-width="1"></path></g><g transform="translate(570 15)"><path d="M0 -11L5.5 -9.5L9.5 -5.5L11 0L9.5 5.5L5.5 9.5L0 11L-5.5 9.5L-9.5 5.5L-11 0L-9.5 -5.5L-5.5 -9.5Z" stroke="#7f0000" fill="none" stroke-width="1"></path></g><g transform="translate(574 419)"><path d="M0 -10L5 -8.7L8.7 -5L10 0L8.7 5L5 8.7L0 10L-5 8.7L-8.7 5L-10 0L-8.7 -5L-5 -8.7Z" stroke="#7f0000" fill="none" stroke-width="1"></path></g><g transform="translate(751 320)"><path d="M0 -3L1.5 -2.6L2.6 -1.5L3 0L2.6 1.5L1.5 2.6L0 3L-1.5 2.6L-2.6 1.5L-3 0L-2.6 -1.5L-1.5 -2.6Z" stroke="#7f0000" fill="none" stroke-width="1"></path></g><g transform="translate(268 380)"><path d="M0 -3L1.5 -2.6L2.6 -1.5L3 0L2.6 1.5L1.5 2.6L0 3L-1.5 2.6L-2.6 1.5L-3 0L-2.6 -1.5L-1.5 -2.6Z" stroke="#7f0000" fill="none" stroke-width="1"></path></g><g transform="translate(243 280)"><path d="M0 -11L5.5 -9.5L9.5 -5.5L11 0L9.5 5.5L5.5 9.5L0 11L-5.5 9.5L-9.5 5.5L-11 0L-9.5 -5.5L-5.5 -9.5Z" stroke="#7f0000" fill="none" stroke-width="1"></path></g><g transform="translate(729 112)"><path d="M0 -7L3.5 -6.1L6.1 -3.5L7 0L6.1 3.5L3.5 6.1L0 7L-3.5 6.1L-6.1 3.5L-7 0L-6.1 -3.5L-3.5 -6.1Z" stroke="#7f0000" fill="none" stroke-width="1"></path></g><g transform="translate(139 76)"><path d="M0 -10L5 -8.7L8.7 -5L10 0L8.7 5L5 8.7L0 10L-5 8.7L-8.7 5L-10 0L-8.7 -5L-5 -8.7Z" stroke="#7f0000" fill="none" stroke-width="1"></path></g><g transform="translate(680 165)"><path d="M0 -6L3 -5.2L5.2 -3L6 0L5.2 3L3 5.2L0 6L-3 5.2L-5.2 3L-6 0L-5.2 -3L-3 -5.2Z" stroke="#7f0000" fill="none" stroke-width="1"></path></g><g transform="translate(752 485)"><path d="M0 -6L3 -5.2L5.2 -3L6 0L5.2 3L3 5.2L0 6L-3 5.2L-5.2 3L-6 0L-5.2 -3L-3 -5.2Z" stroke="#7f0000" fill="none" stroke-width="1"></path></g><g transform="translate(195 448)"><path d="M0 -9L4.5 -7.8L7.8 -4.5L9 0L7.8 4.5L4.5 7.8L0 9L-4.5 7.8L-7.8 4.5L-9 0L-7.8 -4.5L-4.5 -7.8Z" stroke="#7f0000" fill="none" stroke-width="1"></path></g><g transform="translate(91 92)"><path d="M0 -9L4.5 -7.8L7.8 -4.5L9 0L7.8 4.5L4.5 7.8L0 9L-4.5 7.8L-7.8 4.5L-9 0L-7.8 -4.5L-4.5 -7.8Z" stroke="#7f0000" fill="none" stroke-width="1"></path></g><g transform="translate(649 456)"><path d="M0 -5L2.5 -4.3L4.3 -2.5L5 0L4.3 2.5L2.5 4.3L0 5L-2.5 4.3L-4.3 2.5L-5 0L-4.3 -2.5L-2.5 -4.3Z" stroke="#7f0000" fill="none" stroke-width="1"></path></g><g transform="translate(948 133)"><path d="M0 -7L3.5 -6.1L6.1 -3.5L7 0L6.1 3.5L3.5 6.1L0 7L-3.5 6.1L-6.1 3.5L-7 0L-6.1 -3.5L-3.5 -6.1Z" stroke="#7f0000" fill="none" stroke-width="1"></path></g><g transform="translate(410 488)"><path d="M0 -3L1.5 -2.6L2.6 -1.5L3 0L2.6 1.5L1.5 2.6L0 3L-1.5 2.6L-2.6 1.5L-3 0L-2.6 -1.5L-1.5 -2.6Z" stroke="#7f0000" fill="none" stroke-width="1"></path></g><g transform="translate(793 1)"><path d="M0 -4L2 -3.5L3.5 -2L4 0L3.5 2L2 3.5L0 4L-2 3.5L-3.5 2L-4 0L-3.5 -2L-2 -3.5Z" stroke="#7f0000" fill="none" stroke-width="1"></path></g><g transform="translate(316 525)"><path d="M0 -7L3.5 -6.1L6.1 -3.5L7 0L6.1 3.5L3.5 6.1L0 7L-3.5 6.1L-6.1 3.5L-7 0L-6.1 -3.5L-3.5 -6.1Z" stroke="#7f0000" fill="none" stroke-width="1"></path></g><g transform="translate(42 457)"><path d="M0 -6L3 -5.2L5.2 -3L6 0L5.2 3L3 5.2L0 6L-3 5.2L-5.2 3L-6 0L-5.2 -3L-3 -5.2Z" stroke="#7f0000" fill="none" stroke-width="1"></path></g><g transform="translate(782 324)"><path d="M0 -6L3 -5.2L5.2 -3L6 0L5.2 3L3 5.2L0 6L-3 5.2L-5.2 3L-6 0L-5.2 -3L-3 -5.2Z" stroke="#7f0000" fill="none" stroke-width="1"></path></g><g transform="translate(12 168)"><path d="M0 -10L5 -8.7L8.7 -5L10 0L8.7 5L5 8.7L0 10L-5 8.7L-8.7 5L-10 0L-8.7 -5L-5 -8.7Z" stroke="#7f0000" fill="none" stroke-width="1"></path></g><g transform="translate(613 360)"><path d="M0 -5L2.5 -4.3L4.3 -2.5L5 0L4.3 2.5L2.5 4.3L0 5L-2.5 4.3L-4.3 2.5L-5 0L-4.3 -2.5L-2.5 -4.3Z" stroke="#7f0000" fill="none" stroke-width="1"></path></g><g transform="translate(892 25)"><path d="M0 -11L5.5 -9.5L9.5 -5.5L11 0L9.5 5.5L5.5 9.5L0 11L-5.5 9.5L-9.5 5.5L-11 0L-9.5 -5.5L-5.5 -9.5Z" stroke="#7f0000" fill="none" stroke-width="1"></path></g><g transform="translate(701 219)"><path d="M0 -4L2 -3.5L3.5 -2L4 0L3.5 2L2 3.5L0 4L-2 3.5L-3.5 2L-4 0L-3.5 -2L-2 -3.5Z" stroke="#7f0000" fill="none" stroke-width="1"></path></g><g transform="translate(77 286)"><path d="M0 -5L2.5 -4.3L4.3 -2.5L5 0L4.3 2.5L2.5 4.3L0 5L-2.5 4.3L-4.3 2.5L-5 0L-4.3 -2.5L-2.5 -4.3Z" stroke="#7f0000" fill="none" stroke-width="1"></path></g><g transform="translate(588 383)"><path d="M0 -8L4 -6.9L6.9 -4L8 0L6.9 4L4 6.9L0 8L-4 6.9L-6.9 4L-8 0L-6.9 -4L-4 -6.9Z" stroke="#7f0000" fill="none" stroke-width="1"></path></g><g transform="translate(106 22)"><path d="M0 -4L2 -3.5L3.5 -2L4 0L3.5 2L2 3.5L0 4L-2 3.5L-3.5 2L-4 0L-3.5 -2L-2 -3.5Z" stroke="#7f0000" fill="none" stroke-width="1"></path></g><g transform="translate(518 29)"><path d="M0 -6L3 -5.2L5.2 -3L6 0L5.2 3L3 5.2L0 6L-3 5.2L-5.2 3L-6 0L-5.2 -3L-3 -5.2Z" stroke="#7f0000" fill="none" stroke-width="1"></path></g><g transform="translate(946 68)"><path d="M0 -11L5.5 -9.5L9.5 -5.5L11 0L9.5 5.5L5.5 9.5L0 11L-5.5 9.5L-9.5 5.5L-11 0L-9.5 -5.5L-5.5 -9.5Z" stroke="#7f0000" fill="none" stroke-width="1"></path></g><g transform="translate(675 462)"><path d="M0 -9L4.5 -7.8L7.8 -4.5L9 0L7.8 4.5L4.5 7.8L0 9L-4.5 7.8L-7.8 4.5L-9 0L-7.8 -4.5L-4.5 -7.8Z" stroke="#7f0000" fill="none" stroke-width="1"></path></g><g transform="translate(136 47)"><path d="M0 -3L1.5 -2.6L2.6 -1.5L3 0L2.6 1.5L1.5 2.6L0 3L-1.5 2.6L-2.6 1.5L-3 0L-2.6 -1.5L-1.5 -2.6Z" stroke="#7f0000" fill="none" stroke-width="1"></path></g><g transform="translate(48 15)"><path d="M0 -7L3.5 -6.1L6.1 -3.5L7 0L6.1 3.5L3.5 6.1L0 7L-3.5 6.1L-6.1 3.5L-7 0L-6.1 -3.5L-3.5 -6.1Z" stroke="#7f0000" fill="none" stroke-width="1"></path></g><g transform="translate(305 422)"><path d="M0 -7L3.5 -6.1L6.1 -3.5L7 0L6.1 3.5L3.5 6.1L0 7L-3.5 6.1L-6.1 3.5L-7 0L-6.1 -3.5L-3.5 -6.1Z" stroke="#7f0000" fill="none" stroke-width="1"></path></g><g transform="translate(9 32)"><path d="M0 -5L2.5 -4.3L4.3 -2.5L5 0L4.3 2.5L2.5 4.3L0 5L-2.5 4.3L-4.3 2.5L-5 0L-4.3 -2.5L-2.5 -4.3Z" stroke="#7f0000" fill="none" stroke-width="1"></path></g><g transform="translate(337 301)"><path d="M0 -9L4.5 -7.8L7.8 -4.5L9 0L7.8 4.5L4.5 7.8L0 9L-4.5 7.8L-7.8 4.5L-9 0L-7.8 -4.5L-4.5 -7.8Z" stroke="#7f0000" fill="none" stroke-width="1"></path></g><g transform="translate(302 11)"><path d="M0 -8L4 -6.9L6.9 -4L8 0L6.9 4L4 6.9L0 8L-4 6.9L-6.9 4L-8 0L-6.9 -4L-4 -6.9Z" stroke="#7f0000" fill="none" stroke-width="1"></path></g><g transform="translate(51 81)"><path d="M0 -3L1.5 -2.6L2.6 -1.5L3 0L2.6 1.5L1.5 2.6L0 3L-1.5 2.6L-2.6 1.5L-3 0L-2.6 -1.5L-1.5 -2.6Z" stroke="#7f0000" fill="none" stroke-width="1"></path></g><g transform="translate(57 303)"><path d="M0 -5L2.5 -4.3L4.3 -2.5L5 0L4.3 2.5L2.5 4.3L0 5L-2.5 4.3L-4.3 2.5L-5 0L-4.3 -2.5L-2.5 -4.3Z" stroke="#7f0000" fill="none" stroke-width="1"></path></g><g transform="translate(377 347)"><path d="M0 -3L1.5 -2.6L2.6 -1.5L3 0L2.6 1.5L1.5 2.6L0 3L-1.5 2.6L-2.6 1.5L-3 0L-2.6 -1.5L-1.5 -2.6Z" stroke="#7f0000" fill="none" stroke-width="1"></path></g><g transform="translate(952 310)"><path d="M0 -5L2.5 -4.3L4.3 -2.5L5 0L4.3 2.5L2.5 4.3L0 5L-2.5 4.3L-4.3 2.5L-5 0L-4.3 -2.5L-2.5 -4.3Z" stroke="#7f0000" fill="none" stroke-width="1"></path></g><g transform="translate(446 271)"><path d="M0 -8L4 -6.9L6.9 -4L8 0L6.9 4L4 6.9L0 8L-4 6.9L-6.9 4L-8 0L-6.9 -4L-4 -6.9Z" stroke="#7f0000" fill="none" stroke-width="1"></path></g><g transform="translate(560 390)"><path d="M0 -6L3 -5.2L5.2 -3L6 0L5.2 3L3 5.2L0 6L-3 5.2L-5.2 3L-6 0L-5.2 -3L-3 -5.2Z" stroke="#7f0000" fill="none" stroke-width="1"></path></g><g transform="translate(366 419)"><path d="M0 -7L3.5 -6.1L6.1 -3.5L7 0L6.1 3.5L3.5 6.1L0 7L-3.5 6.1L-6.1 3.5L-7 0L-6.1 -3.5L-3.5 -6.1Z" stroke="#7f0000" fill="none" stroke-width="1"></path></g><g transform="translate(240 366)"><path d="M0 -6L3 -5.2L5.2 -3L6 0L5.2 3L3 5.2L0 6L-3 5.2L-5.2 3L-6 0L-5.2 -3L-3 -5.2Z" stroke="#7f0000" fill="none" stroke-width="1"></path></g><g transform="translate(794 531)"><path d="M0 -10L5 -8.7L8.7 -5L10 0L8.7 5L5 8.7L0 10L-5 8.7L-8.7 5L-10 0L-8.7 -5L-5 -8.7Z" stroke="#7f0000" fill="none" stroke-width="1"></path></g><g transform="translate(946 368)"><path d="M0 -9L4.5 -7.8L7.8 -4.5L9 0L7.8 4.5L4.5 7.8L0 9L-4.5 7.8L-7.8 4.5L-9 0L-7.8 -4.5L-4.5 -7.8Z" stroke="#7f0000" fill="none" stroke-width="1"></path></g><g transform="translate(849 458)"><path d="M0 -7L3.5 -6.1L6.1 -3.5L7 0L6.1 3.5L3.5 6.1L0 7L-3.5 6.1L-6.1 3.5L-7 0L-6.1 -3.5L-3.5 -6.1Z" stroke="#7f0000" fill="none" stroke-width="1"></path></g><g transform="translate(326 342)"><path d="M0 -9L4.5 -7.8L7.8 -4.5L9 0L7.8 4.5L4.5 7.8L0 9L-4.5 7.8L-7.8 4.5L-9 0L-7.8 -4.5L-4.5 -7.8Z" stroke="#7f0000" fill="none" stroke-width="1"></path></g><g transform="translate(588 39)"><path d="M0 -5L2.5 -4.3L4.3 -2.5L5 0L4.3 2.5L2.5 4.3L0 5L-2.5 4.3L-4.3 2.5L-5 0L-4.3 -2.5L-2.5 -4.3Z" stroke="#7f0000" fill="none" stroke-width="1"></path></g><g transform="translate(15 385)"><path d="M0 -3L1.5 -2.6L2.6 -1.5L3 0L2.6 1.5L1.5 2.6L0 3L-1.5 2.6L-2.6 1.5L-3 0L-2.6 -1.5L-1.5 -2.6Z" stroke="#7f0000" fill="none" stroke-width="1"></path></g><g transform="translate(800 171)"><path d="M0 -6L3 -5.2L5.2 -3L6 0L5.2 3L3 5.2L0 6L-3 5.2L-5.2 3L-6 0L-5.2 -3L-3 -5.2Z" stroke="#7f0000" fill="none" stroke-width="1"></path></g><g transform="translate(632 155)"><path d="M0 -7L3.5 -6.1L6.1 -3.5L7 0L6.1 3.5L3.5 6.1L0 7L-3.5 6.1L-6.1 3.5L-7 0L-6.1 -3.5L-3.5 -6.1Z" stroke="#7f0000" fill="none" stroke-width="1"></path></g><g transform="translate(105 213)"><path d="M0 -6L3 -5.2L5.2 -3L6 0L5.2 3L3 5.2L0 6L-3 5.2L-5.2 3L-6 0L-5.2 -3L-3 -5.2Z" stroke="#7f0000" fill="none" stroke-width="1"></path></g><g transform="translate(831 417)"><path d="M0 -8L4 -6.9L6.9 -4L8 0L6.9 4L4 6.9L0 8L-4 6.9L-6.9 4L-8 0L-6.9 -4L-4 -6.9Z" stroke="#7f0000" fill="none" stroke-width="1"></path></g><g transform="translate(188 522)"><path d="M0 -9L4.5 -7.8L7.8 -4.5L9 0L7.8 4.5L4.5 7.8L0 9L-4.5 7.8L-7.8 4.5L-9 0L-7.8 -4.5L-4.5 -7.8Z" stroke="#7f0000" fill="none" stroke-width="1"></path></g><g transform="translate(641 307)"><path d="M0 -5L2.5 -4.3L4.3 -2.5L5 0L4.3 2.5L2.5 4.3L0 5L-2.5 4.3L-4.3 2.5L-5 0L-4.3 -2.5L-2.5 -4.3Z" stroke="#7f0000" fill="none" stroke-width="1"></path></g><g transform="translate(958 284)"><path d="M0 -9L4.5 -7.8L7.8 -4.5L9 0L7.8 4.5L4.5 7.8L0 9L-4.5 7.8L-7.8 4.5L-9 0L-7.8 -4.5L-4.5 -7.8Z" stroke="#7f0000" fill="none" stroke-width="1"></path></g><g transform="translate(701 295)"><path d="M0 -11L5.5 -9.5L9.5 -5.5L11 0L9.5 5.5L5.5 9.5L0 11L-5.5 9.5L-9.5 5.5L-11 0L-9.5 -5.5L-5.5 -9.5Z" stroke="#7f0000" fill="none" stroke-width="1"></path></g><g transform="translate(820 35)"><path d="M0 -3L1.5 -2.6L2.6 -1.5L3 0L2.6 1.5L1.5 2.6L0 3L-1.5 2.6L-2.6 1.5L-3 0L-2.6 -1.5L-1.5 -2.6Z" stroke="#7f0000" fill="none" stroke-width="1"></path></g><g transform="translate(97 168)"><path d="M0 -5L2.5 -4.3L4.3 -2.5L5 0L4.3 2.5L2.5 4.3L0 5L-2.5 4.3L-4.3 2.5L-5 0L-4.3 -2.5L-2.5 -4.3Z" stroke="#7f0000" fill="none" stroke-width="1"></path></g><g transform="translate(812 506)"><path d="M0 -4L2 -3.5L3.5 -2L4 0L3.5 2L2 3.5L0 4L-2 3.5L-3.5 2L-4 0L-3.5 -2L-2 -3.5Z" stroke="#7f0000" fill="none" stroke-width="1"></path></g><g transform="translate(680 384)"><path d="M0 -5L2.5 -4.3L4.3 -2.5L5 0L4.3 2.5L2.5 4.3L0 5L-2.5 4.3L-4.3 2.5L-5 0L-4.3 -2.5L-2.5 -4.3Z" stroke="#7f0000" fill="none" stroke-width="1"></path></g><g transform="translate(783 288)"><path d="M0 -3L1.5 -2.6L2.6 -1.5L3 0L2.6 1.5L1.5 2.6L0 3L-1.5 2.6L-2.6 1.5L-3 0L-2.6 -1.5L-1.5 -2.6Z" stroke="#7f0000" fill="none" stroke-width="1"></path></g><g transform="translate(868 253)"><path d="M0 -3L1.5 -2.6L2.6 -1.5L3 0L2.6 1.5L1.5 2.6L0 3L-1.5 2.6L-2.6 1.5L-3 0L-2.6 -1.5L-1.5 -2.6Z" stroke="#7f0000" fill="none" stroke-width="1"></path></g><g transform="translate(394 383)"><path d="M0 -7L3.5 -6.1L6.1 -3.5L7 0L6.1 3.5L3.5 6.1L0 7L-3.5 6.1L-6.1 3.5L-7 0L-6.1 -3.5L-3.5 -6.1Z" stroke="#7f0000" fill="none" stroke-width="1"></path></g><g transform="translate(935 162)"><path d="M0 -10L5 -8.7L8.7 -5L10 0L8.7 5L5 8.7L0 10L-5 8.7L-8.7 5L-10 0L-8.7 -5L-5 -8.7Z" stroke="#7f0000" fill="none" stroke-width="1"></path></g><g transform="translate(893 129)"><path d="M0 -3L1.5 -2.6L2.6 -1.5L3 0L2.6 1.5L1.5 2.6L0 3L-1.5 2.6L-2.6 1.5L-3 0L-2.6 -1.5L-1.5 -2.6Z" stroke="#7f0000" fill="none" stroke-width="1"></path></g><g transform="translate(111 57)"><path d="M0 -10L5 -8.7L8.7 -5L10 0L8.7 5L5 8.7L0 10L-5 8.7L-8.7 5L-10 0L-8.7 -5L-5 -8.7Z" stroke="#7f0000" fill="none" stroke-width="1"></path></g><g transform="translate(621 520)"><path d="M0 -6L3 -5.2L5.2 -3L6 0L5.2 3L3 5.2L0 6L-3 5.2L-5.2 3L-6 0L-5.2 -3L-3 -5.2Z" stroke="#7f0000" fill="none" stroke-width="1"></path></g><g transform="translate(196 12)"><path d="M0 -9L4.5 -7.8L7.8 -4.5L9 0L7.8 4.5L4.5 7.8L0 9L-4.5 7.8L-7.8 4.5L-9 0L-7.8 -4.5L-4.5 -7.8Z" stroke="#7f0000" fill="none" stroke-width="1"></path></g><g transform="translate(145 202)"><path d="M0 -6L3 -5.2L5.2 -3L6 0L5.2 3L3 5.2L0 6L-3 5.2L-5.2 3L-6 0L-5.2 -3L-3 -5.2Z" stroke="#7f0000" fill="none" stroke-width="1"></path></g><g transform="translate(417 178)"><path d="M0 -11L5.5 -9.5L9.5 -5.5L11 0L9.5 5.5L5.5 9.5L0 11L-5.5 9.5L-9.5 5.5L-11 0L-9.5 -5.5L-5.5 -9.5Z" stroke="#7f0000" fill="none" stroke-width="1"></path></g><g transform="translate(136 367)"><path d="M0 -9L4.5 -7.8L7.8 -4.5L9 0L7.8 4.5L4.5 7.8L0 9L-4.5 7.8L-7.8 4.5L-9 0L-7.8 -4.5L-4.5 -7.8Z" stroke="#7f0000" fill="none" stroke-width="1"></path></g><g transform="translate(394 194)"><path d="M0 -7L3.5 -6.1L6.1 -3.5L7 0L6.1 3.5L3.5 6.1L0 7L-3.5 6.1L-6.1 3.5L-7 0L-6.1 -3.5L-3.5 -6.1Z" stroke="#7f0000" fill="none" stroke-width="1"></path></g><g transform="translate(424 463)"><path d="M0 -5L2.5 -4.3L4.3 -2.5L5 0L4.3 2.5L2.5 4.3L0 5L-2.5 4.3L-4.3 2.5L-5 0L-4.3 -2.5L-2.5 -4.3Z" stroke="#7f0000" fill="none" stroke-width="1"></path></g><g transform="translate(865 6)"><path d="M0 -9L4.5 -7.8L7.8 -4.5L9 0L7.8 4.5L4.5 7.8L0 9L-4.5 7.8L-7.8 4.5L-9 0L-7.8 -4.5L-4.5 -7.8Z" stroke="#7f0000" fill="none" stroke-width="1"></path></g><g transform="translate(675 317)"><path d="M0 -11L5.5 -9.5L9.5 -5.5L11 0L9.5 5.5L5.5 9.5L0 11L-5.5 9.5L-9.5 5.5L-11 0L-9.5 -5.5L-5.5 -9.5Z" stroke="#7f0000" fill="none" stroke-width="1"></path></g><g transform="translate(213 211)"><path d="M0 -10L5 -8.7L8.7 -5L10 0L8.7 5L5 8.7L0 10L-5 8.7L-8.7 5L-10 0L-8.7 -5L-5 -8.7Z" stroke="#7f0000" fill="none" stroke-width="1"></path></g><g transform="translate(219 426)"><path d="M0 -5L2.5 -4.3L4.3 -2.5L5 0L4.3 2.5L2.5 4.3L0 5L-2.5 4.3L-4.3 2.5L-5 0L-4.3 -2.5L-2.5 -4.3Z" stroke="#7f0000" fill="none" stroke-width="1"></path></g><g transform="translate(171 249)"><path d="M0 -9L4.5 -7.8L7.8 -4.5L9 0L7.8 4.5L4.5 7.8L0 9L-4.5 7.8L-7.8 4.5L-9 0L-7.8 -4.5L-4.5 -7.8Z" stroke="#7f0000" fill="none" stroke-width="1"></path></g><g transform="translate(602 406)"><path d="M0 -5L2.5 -4.3L4.3 -2.5L5 0L4.3 2.5L2.5 4.3L0 5L-2.5 4.3L-4.3 2.5L-5 0L-4.3 -2.5L-2.5 -4.3Z" stroke="#7f0000" fill="none" stroke-width="1"></path></g><g transform="translate(771 163)"><path d="M0 -5L2.5 -4.3L4.3 -2.5L5 0L4.3 2.5L2.5 4.3L0 5L-2.5 4.3L-4.3 2.5L-5 0L-4.3 -2.5L-2.5 -4.3Z" stroke="#7f0000" fill="none" stroke-width="1"></path></g><g transform="translate(374 509)"><path d="M0 -6L3 -5.2L5.2 -3L6 0L5.2 3L3 5.2L0 6L-3 5.2L-5.2 3L-6 0L-5.2 -3L-3 -5.2Z" stroke="#7f0000" fill="none" stroke-width="1"></path></g><g transform="translate(831 533)"><path d="M0 -9L4.5 -7.8L7.8 -4.5L9 0L7.8 4.5L4.5 7.8L0 9L-4.5 7.8L-7.8 4.5L-9 0L-7.8 -4.5L-4.5 -7.8Z" stroke="#7f0000" fill="none" stroke-width="1"></path></g><g transform="translate(866 368)"><path d="M0 -5L2.5 -4.3L4.3 -2.5L5 0L4.3 2.5L2.5 4.3L0 5L-2.5 4.3L-4.3 2.5L-5 0L-4.3 -2.5L-2.5 -4.3Z" stroke="#7f0000" fill="none" stroke-width="1"></path></g><g transform="translate(494 461)"><path d="M0 -9L4.5 -7.8L7.8 -4.5L9 0L7.8 4.5L4.5 7.8L0 9L-4.5 7.8L-7.8 4.5L-9 0L-7.8 -4.5L-4.5 -7.8Z" stroke="#7f0000" fill="none" stroke-width="1"></path></g><g transform="translate(904 240)"><path d="M0 -5L2.5 -4.3L4.3 -2.5L5 0L4.3 2.5L2.5 4.3L0 5L-2.5 4.3L-4.3 2.5L-5 0L-4.3 -2.5L-2.5 -4.3Z" stroke="#7f0000" fill="none" stroke-width="1"></path></g><g transform="translate(267 104)"><path d="M0 -5L2.5 -4.3L4.3 -2.5L5 0L4.3 2.5L2.5 4.3L0 5L-2.5 4.3L-4.3 2.5L-5 0L-4.3 -2.5L-2.5 -4.3Z" stroke="#7f0000" fill="none" stroke-width="1"></path></g><g transform="translate(737 295)"><path d="M0 -7L3.5 -6.1L6.1 -3.5L7 0L6.1 3.5L3.5 6.1L0 7L-3.5 6.1L-6.1 3.5L-7 0L-6.1 -3.5L-3.5 -6.1Z" stroke="#7f0000" fill="none" stroke-width="1"></path></g><g transform="translate(30 531)"><path d="M0 -10L5 -8.7L8.7 -5L10 0L8.7 5L5 8.7L0 10L-5 8.7L-8.7 5L-10 0L-8.7 -5L-5 -8.7Z" stroke="#7f0000" fill="none" stroke-width="1"></path></g><g transform="translate(288 234)"><path d="M0 -10L5 -8.7L8.7 -5L10 0L8.7 5L5 8.7L0 10L-5 8.7L-8.7 5L-10 0L-8.7 -5L-5 -8.7Z" stroke="#7f0000" fill="none" stroke-width="1"></path></g><g transform="translate(163 459)"><path d="M0 -9L4.5 -7.8L7.8 -4.5L9 0L7.8 4.5L4.5 7.8L0 9L-4.5 7.8L-7.8 4.5L-9 0L-7.8 -4.5L-4.5 -7.8Z" stroke="#7f0000" fill="none" stroke-width="1"></path></g><g transform="translate(170 29)"><path d="M0 -6L3 -5.2L5.2 -3L6 0L5.2 3L3 5.2L0 6L-3 5.2L-5.2 3L-6 0L-5.2 -3L-3 -5.2Z" stroke="#7f0000" fill="none" stroke-width="1"></path></g><g transform="translate(727 261)"><path d="M0 -5L2.5 -4.3L4.3 -2.5L5 0L4.3 2.5L2.5 4.3L0 5L-2.5 4.3L-4.3 2.5L-5 0L-4.3 -2.5L-2.5 -4.3Z" stroke="#7f0000" fill="none" stroke-width="1"></path></g><g transform="translate(488 63)"><path d="M0 -9L4.5 -7.8L7.8 -4.5L9 0L7.8 4.5L4.5 7.8L0 9L-4.5 7.8L-7.8 4.5L-9 0L-7.8 -4.5L-4.5 -7.8Z" stroke="#7f0000" fill="none" stroke-width="1"></path></g><g transform="translate(332 54)"><path d="M0 -4L2 -3.5L3.5 -2L4 0L3.5 2L2 3.5L0 4L-2 3.5L-3.5 2L-4 0L-3.5 -2L-2 -3.5Z" stroke="#7f0000" fill="none" stroke-width="1"></path></g><g transform="translate(486 20)"><path d="M0 -4L2 -3.5L3.5 -2L4 0L3.5 2L2 3.5L0 4L-2 3.5L-3.5 2L-4 0L-3.5 -2L-2 -3.5Z" stroke="#7f0000" fill="none" stroke-width="1"></path></g><g transform="translate(958 179)"><path d="M0 -10L5 -8.7L8.7 -5L10 0L8.7 5L5 8.7L0 10L-5 8.7L-8.7 5L-10 0L-8.7 -5L-5 -8.7Z" stroke="#7f0000" fill="none" stroke-width="1"></path></g><g transform="translate(588 271)"><path d="M0 -7L3.5 -6.1L6.1 -3.5L7 0L6.1 3.5L3.5 6.1L0 7L-3.5 6.1L-6.1 3.5L-7 0L-6.1 -3.5L-3.5 -6.1Z" stroke="#7f0000" fill="none" stroke-width="1"></path></g><g transform="translate(768 70)"><path d="M0 -11L5.5 -9.5L9.5 -5.5L11 0L9.5 5.5L5.5 9.5L0 11L-5.5 9.5L-9.5 5.5L-11 0L-9.5 -5.5L-5.5 -9.5Z" stroke="#7f0000" fill="none" stroke-width="1"></path></g><g transform="translate(940 530)"><path d="M0 -4L2 -3.5L3.5 -2L4 0L3.5 2L2 3.5L0 4L-2 3.5L-3.5 2L-4 0L-3.5 -2L-2 -3.5Z" stroke="#7f0000" fill="none" stroke-width="1"></path></g><g transform="translate(355 535)"><path d="M0 -7L3.5 -6.1L6.1 -3.5L7 0L6.1 3.5L3.5 6.1L0 7L-3.5 6.1L-6.1 3.5L-7 0L-6.1 -3.5L-3.5 -6.1Z" stroke="#7f0000" fill="none" stroke-width="1"></path></g><g transform="translate(860 425)"><path d="M0 -11L5.5 -9.5L9.5 -5.5L11 0L9.5 5.5L5.5 9.5L0 11L-5.5 9.5L-9.5 5.5L-11 0L-9.5 -5.5L-5.5 -9.5Z" stroke="#7f0000" fill="none" stroke-width="1"></path></g><g transform="translate(279 526)"><path d="M0 -3L1.5 -2.6L2.6 -1.5L3 0L2.6 1.5L1.5 2.6L0 3L-1.5 2.6L-2.6 1.5L-3 0L-2.6 -1.5L-1.5 -2.6Z" stroke="#7f0000" fill="none" stroke-width="1"></path></g><g transform="translate(260 459)"><path d="M0 -9L4.5 -7.8L7.8 -4.5L9 0L7.8 4.5L4.5 7.8L0 9L-4.5 7.8L-7.8 4.5L-9 0L-7.8 -4.5L-4.5 -7.8Z" stroke="#7f0000" fill="none" stroke-width="1"></path></g><g transform="translate(485 177)"><path d="M0 -5L2.5 -4.3L4.3 -2.5L5 0L4.3 2.5L2.5 4.3L0 5L-2.5 4.3L-4.3 2.5L-5 0L-4.3 -2.5L-2.5 -4.3Z" stroke="#7f0000" fill="none" stroke-width="1"></path></g><g transform="translate(335 156)"><path d="M0 -4L2 -3.5L3.5 -2L4 0L3.5 2L2 3.5L0 4L-2 3.5L-3.5 2L-4 0L-3.5 -2L-2 -3.5Z" stroke="#7f0000" fill="none" stroke-width="1"></path></g><g transform="translate(959 241)"><path d="M0 -7L3.5 -6.1L6.1 -3.5L7 0L6.1 3.5L3.5 6.1L0 7L-3.5 6.1L-6.1 3.5L-7 0L-6.1 -3.5L-3.5 -6.1Z" stroke="#7f0000" fill="none" stroke-width="1"></path></g><g transform="translate(521 203)"><path d="M0 -11L5.5 -9.5L9.5 -5.5L11 0L9.5 5.5L5.5 9.5L0 11L-5.5 9.5L-9.5 5.5L-11 0L-9.5 -5.5L-5.5 -9.5Z" stroke="#7f0000" fill="none" stroke-width="1"></path></g><g transform="translate(893 264)"><path d="M0 -4L2 -3.5L3.5 -2L4 0L3.5 2L2 3.5L0 4L-2 3.5L-3.5 2L-4 0L-3.5 -2L-2 -3.5Z" stroke="#7f0000" fill="none" stroke-width="1"></path></g><g transform="translate(384 119)"><path d="M0 -9L4.5 -7.8L7.8 -4.5L9 0L7.8 4.5L4.5 7.8L0 9L-4.5 7.8L-7.8 4.5L-9 0L-7.8 -4.5L-4.5 -7.8Z" stroke="#7f0000" fill="none" stroke-width="1"></path></g><g transform="translate(701 52)"><path d="M0 -8L4 -6.9L6.9 -4L8 0L6.9 4L4 6.9L0 8L-4 6.9L-6.9 4L-8 0L-6.9 -4L-4 -6.9Z" stroke="#7f0000" fill="none" stroke-width="1"></path></g><g transform="translate(103 344)"><path d="M0 -8L4 -6.9L6.9 -4L8 0L6.9 4L4 6.9L0 8L-4 6.9L-6.9 4L-8 0L-6.9 -4L-4 -6.9Z" stroke="#7f0000" fill="none" stroke-width="1"></path></g><g transform="translate(723 191)"><path d="M0 -7L3.5 -6.1L6.1 -3.5L7 0L6.1 3.5L3.5 6.1L0 7L-3.5 6.1L-6.1 3.5L-7 0L-6.1 -3.5L-3.5 -6.1Z" stroke="#7f0000" fill="none" stroke-width="1"></path></g><g transform="translate(12 270)"><path d="M0 -7L3.5 -6.1L6.1 -3.5L7 0L6.1 3.5L3.5 6.1L0 7L-3.5 6.1L-6.1 3.5L-7 0L-6.1 -3.5L-3.5 -6.1Z" stroke="#7f0000" fill="none" stroke-width="1"></path></g><g transform="translate(691 501)"><path d="M0 -3L1.5 -2.6L2.6 -1.5L3 0L2.6 1.5L1.5 2.6L0 3L-1.5 2.6L-2.6 1.5L-3 0L-2.6 -1.5L-1.5 -2.6Z" stroke="#7f0000" fill="none" stroke-width="1"></path></g><g transform="translate(163 427)"><path d="M0 -7L3.5 -6.1L6.1 -3.5L7 0L6.1 3.5L3.5 6.1L0 7L-3.5 6.1L-6.1 3.5L-7 0L-6.1 -3.5L-3.5 -6.1Z" stroke="#7f0000" fill="none" stroke-width="1"></path></g><g transform="translate(619 334)"><path d="M0 -8L4 -6.9L6.9 -4L8 0L6.9 4L4 6.9L0 8L-4 6.9L-6.9 4L-8 0L-6.9 -4L-4 -6.9Z" stroke="#7f0000" fill="none" stroke-width="1"></path></g><g transform="translate(864 535)"><path d="M0 -10L5 -8.7L8.7 -5L10 0L8.7 5L5 8.7L0 10L-5 8.7L-8.7 5L-10 0L-8.7 -5L-5 -8.7Z" stroke="#7f0000" fill="none" stroke-width="1"></path></g><g transform="translate(639 206)"><path d="M0 -5L2.5 -4.3L4.3 -2.5L5 0L4.3 2.5L2.5 4.3L0 5L-2.5 4.3L-4.3 2.5L-5 0L-4.3 -2.5L-2.5 -4.3Z" stroke="#7f0000" fill="none" stroke-width="1"></path></g><g transform="translate(83 3)"><path d="M0 -3L1.5 -2.6L2.6 -1.5L3 0L2.6 1.5L1.5 2.6L0 3L-1.5 2.6L-2.6 1.5L-3 0L-2.6 -1.5L-1.5 -2.6Z" stroke="#7f0000" fill="none" stroke-width="1"></path></g><g transform="translate(703 533)"><path d="M0 -4L2 -3.5L3.5 -2L4 0L3.5 2L2 3.5L0 4L-2 3.5L-3.5 2L-4 0L-3.5 -2L-2 -3.5Z" stroke="#7f0000" fill="none" stroke-width="1"></path></g><g transform="translate(290 46)"><path d="M0 -10L5 -8.7L8.7 -5L10 0L8.7 5L5 8.7L0 10L-5 8.7L-8.7 5L-10 0L-8.7 -5L-5 -8.7Z" stroke="#7f0000" fill="none" stroke-width="1"></path></g><g transform="translate(928 220)"><path d="M0 -6L3 -5.2L5.2 -3L6 0L5.2 3L3 5.2L0 6L-3 5.2L-5.2 3L-6 0L-5.2 -3L-3 -5.2Z" stroke="#7f0000" fill="none" stroke-width="1"></path></g><g transform="translate(282 438)"><path d="M0 -4L2 -3.5L3.5 -2L4 0L3.5 2L2 3.5L0 4L-2 3.5L-3.5 2L-4 0L-3.5 -2L-2 -3.5Z" stroke="#7f0000" fill="none" stroke-width="1"></path></g><g transform="translate(796 217)"><path d="M0 -7L3.5 -6.1L6.1 -3.5L7 0L6.1 3.5L3.5 6.1L0 7L-3.5 6.1L-6.1 3.5L-7 0L-6.1 -3.5L-3.5 -6.1Z" stroke="#7f0000" fill="none" stroke-width="1"></path></g><g transform="translate(404 336)"><path d="M0 -5L2.5 -4.3L4.3 -2.5L5 0L4.3 2.5L2.5 4.3L0 5L-2.5 4.3L-4.3 2.5L-5 0L-4.3 -2.5L-2.5 -4.3Z" stroke="#7f0000" fill="none" stroke-width="1"></path></g><g transform="translate(515 325)"><path d="M0 -6L3 -5.2L5.2 -3L6 0L5.2 3L3 5.2L0 6L-3 5.2L-5.2 3L-6 0L-5.2 -3L-3 -5.2Z" stroke="#7f0000" fill="none" stroke-width="1"></path></g><g transform="translate(447 300)"><path d="M0 -10L5 -8.7L8.7 -5L10 0L8.7 5L5 8.7L0 10L-5 8.7L-8.7 5L-10 0L-8.7 -5L-5 -8.7Z" stroke="#7f0000" fill="none" stroke-width="1"></path></g><g transform="translate(17 195)"><path d="M0 -9L4.5 -7.8L7.8 -4.5L9 0L7.8 4.5L4.5 7.8L0 9L-4.5 7.8L-7.8 4.5L-9 0L-7.8 -4.5L-4.5 -7.8Z" stroke="#7f0000" fill="none" stroke-width="1"></path></g><g transform="translate(796 61)"><path d="M0 -5L2.5 -4.3L4.3 -2.5L5 0L4.3 2.5L2.5 4.3L0 5L-2.5 4.3L-4.3 2.5L-5 0L-4.3 -2.5L-2.5 -4.3Z" stroke="#7f0000" fill="none" stroke-width="1"></path></g><g transform="translate(506 151)"><path d="M0 -7L3.5 -6.1L6.1 -3.5L7 0L6.1 3.5L3.5 6.1L0 7L-3.5 6.1L-6.1 3.5L-7 0L-6.1 -3.5L-3.5 -6.1Z" stroke="#7f0000" fill="none" stroke-width="1"></path></g><g transform="translate(215 511)"><path d="M0 -3L1.5 -2.6L2.6 -1.5L3 0L2.6 1.5L1.5 2.6L0 3L-1.5 2.6L-2.6 1.5L-3 0L-2.6 -1.5L-1.5 -2.6Z" stroke="#7f0000" fill="none" stroke-width="1"></path></g><g transform="translate(25 135)"><path d="M0 -3L1.5 -2.6L2.6 -1.5L3 0L2.6 1.5L1.5 2.6L0 3L-1.5 2.6L-2.6 1.5L-3 0L-2.6 -1.5L-1.5 -2.6Z" stroke="#7f0000" fill="none" stroke-width="1"></path></g><g transform="translate(282 166)"><path d="M0 -4L2 -3.5L3.5 -2L4 0L3.5 2L2 3.5L0 4L-2 3.5L-3.5 2L-4 0L-3.5 -2L-2 -3.5Z" stroke="#7f0000" fill="none" stroke-width="1"></path></g><g transform="translate(315 381)"><path d="M0 -5L2.5 -4.3L4.3 -2.5L5 0L4.3 2.5L2.5 4.3L0 5L-2.5 4.3L-4.3 2.5L-5 0L-4.3 -2.5L-2.5 -4.3Z" stroke="#7f0000" fill="none" stroke-width="1"></path></g><g transform="translate(907 537)"><path d="M0 -11L5.5 -9.5L9.5 -5.5L11 0L9.5 5.5L5.5 9.5L0 11L-5.5 9.5L-9.5 5.5L-11 0L-9.5 -5.5L-5.5 -9.5Z" stroke="#7f0000" fill="none" stroke-width="1"></path></g><g transform="translate(517 385)"><path d="M0 -5L2.5 -4.3L4.3 -2.5L5 0L4.3 2.5L2.5 4.3L0 5L-2.5 4.3L-4.3 2.5L-5 0L-4.3 -2.5L-2.5 -4.3Z" stroke="#7f0000" fill="none" stroke-width="1"></path></g><g transform="translate(260 306)"><path d="M0 -5L2.5 -4.3L4.3 -2.5L5 0L4.3 2.5L2.5 4.3L0 5L-2.5 4.3L-4.3 2.5L-5 0L-4.3 -2.5L-2.5 -4.3Z" stroke="#7f0000" fill="none" stroke-width="1"></path></g><g transform="translate(805 394)"><path d="M0 -7L3.5 -6.1L6.1 -3.5L7 0L6.1 3.5L3.5 6.1L0 7L-3.5 6.1L-6.1 3.5L-7 0L-6.1 -3.5L-3.5 -6.1Z" stroke="#7f0000" fill="none" stroke-width="1"></path></g><g transform="translate(340 436)"><path d="M0 -10L5 -8.7L8.7 -5L10 0L8.7 5L5 8.7L0 10L-5 8.7L-8.7 5L-10 0L-8.7 -5L-5 -8.7Z" stroke="#7f0000" fill="none" stroke-width="1"></path></g><g transform="translate(82 362)"><path d="M0 -5L2.5 -4.3L4.3 -2.5L5 0L4.3 2.5L2.5 4.3L0 5L-2.5 4.3L-4.3 2.5L-5 0L-4.3 -2.5L-2.5 -4.3Z" stroke="#7f0000" fill="none" stroke-width="1"></path></g><g transform="translate(551 37)"><path d="M0 -11L5.5 -9.5L9.5 -5.5L11 0L9.5 5.5L5.5 9.5L0 11L-5.5 9.5L-9.5 5.5L-11 0L-9.5 -5.5L-5.5 -9.5Z" stroke="#7f0000" fill="none" stroke-width="1"></path></g><g transform="translate(84 67)"><path d="M0 -6L3 -5.2L5.2 -3L6 0L5.2 3L3 5.2L0 6L-3 5.2L-5.2 3L-6 0L-5.2 -3L-3 -5.2Z" stroke="#7f0000" fill="none" stroke-width="1"></path></g><g transform="translate(542 11)"><path d="M0 -9L4.5 -7.8L7.8 -4.5L9 0L7.8 4.5L4.5 7.8L0 9L-4.5 7.8L-7.8 4.5L-9 0L-7.8 -4.5L-4.5 -7.8Z" stroke="#7f0000" fill="none" stroke-width="1"></path></g><g transform="translate(642 536)"><path d="M0 -5L2.5 -4.3L4.3 -2.5L5 0L4.3 2.5L2.5 4.3L0 5L-2.5 4.3L-4.3 2.5L-5 0L-4.3 -2.5L-2.5 -4.3Z" stroke="#7f0000" fill="none" stroke-width="1"></path></g><g transform="translate(80 188)"><path d="M0 -5L2.5 -4.3L4.3 -2.5L5 0L4.3 2.5L2.5 4.3L0 5L-2.5 4.3L-4.3 2.5L-5 0L-4.3 -2.5L-2.5 -4.3Z" stroke="#7f0000" fill="none" stroke-width="1"></path></g><g transform="translate(727 465)"><path d="M0 -4L2 -3.5L3.5 -2L4 0L3.5 2L2 3.5L0 4L-2 3.5L-3.5 2L-4 0L-3.5 -2L-2 -3.5Z" stroke="#7f0000" fill="none" stroke-width="1"></path></g><g transform="translate(542 475)"><path d="M0 -10L5 -8.7L8.7 -5L10 0L8.7 5L5 8.7L0 10L-5 8.7L-8.7 5L-10 0L-8.7 -5L-5 -8.7Z" stroke="#7f0000" fill="none" stroke-width="1"></path></g><g transform="translate(790 144)"><path d="M0 -6L3 -5.2L5.2 -3L6 0L5.2 3L3 5.2L0 6L-3 5.2L-5.2 3L-6 0L-5.2 -3L-3 -5.2Z" stroke="#7f0000" fill="none" stroke-width="1"></path></g><g transform="translate(589 208)"><path d="M0 -10L5 -8.7L8.7 -5L10 0L8.7 5L5 8.7L0 10L-5 8.7L-8.7 5L-10 0L-8.7 -5L-5 -8.7Z" stroke="#7f0000" fill="none" stroke-width="1"></path></g><g transform="translate(303 289)"><path d="M0 -3L1.5 -2.6L2.6 -1.5L3 0L2.6 1.5L1.5 2.6L0 3L-1.5 2.6L-2.6 1.5L-3 0L-2.6 -1.5L-1.5 -2.6Z" stroke="#7f0000" fill="none" stroke-width="1"></path></g><g transform="translate(663 494)"><path d="M0 -3L1.5 -2.6L2.6 -1.5L3 0L2.6 1.5L1.5 2.6L0 3L-1.5 2.6L-2.6 1.5L-3 0L-2.6 -1.5L-1.5 -2.6Z" stroke="#7f0000" fill="none" stroke-width="1"></path></g><g transform="translate(678 28)"><path d="M0 -11L5.5 -9.5L9.5 -5.5L11 0L9.5 5.5L5.5 9.5L0 11L-5.5 9.5L-9.5 5.5L-11 0L-9.5 -5.5L-5.5 -9.5Z" stroke="#7f0000" fill="none" stroke-width="1"></path></g><g transform="translate(586 526)"><path d="M0 -6L3 -5.2L5.2 -3L6 0L5.2 3L3 5.2L0 6L-3 5.2L-5.2 3L-6 0L-5.2 -3L-3 -5.2Z" stroke="#7f0000" fill="none" stroke-width="1"></path></g><g transform="translate(154 337)"><path d="M0 -3L1.5 -2.6L2.6 -1.5L3 0L2.6 1.5L1.5 2.6L0 3L-1.5 2.6L-2.6 1.5L-3 0L-2.6 -1.5L-1.5 -2.6Z" stroke="#7f0000" fill="none" stroke-width="1"></path></g><g transform="translate(419 362)"><path d="M0 -9L4.5 -7.8L7.8 -4.5L9 0L7.8 4.5L4.5 7.8L0 9L-4.5 7.8L-7.8 4.5L-9 0L-7.8 -4.5L-4.5 -7.8Z" stroke="#7f0000" fill="none" stroke-width="1"></path></g><g transform="translate(131 324)"><path d="M0 -4L2 -3.5L3.5 -2L4 0L3.5 2L2 3.5L0 4L-2 3.5L-3.5 2L-4 0L-3.5 -2L-2 -3.5Z" stroke="#7f0000" fill="none" stroke-width="1"></path></g><g transform="translate(458 195)"><path d="M0 -7L3.5 -6.1L6.1 -3.5L7 0L6.1 3.5L3.5 6.1L0 7L-3.5 6.1L-6.1 3.5L-7 0L-6.1 -3.5L-3.5 -6.1Z" stroke="#7f0000" fill="none" stroke-width="1"></path></g><g transform="translate(605 446)"><path d="M0 -9L4.5 -7.8L7.8 -4.5L9 0L7.8 4.5L4.5 7.8L0 9L-4.5 7.8L-7.8 4.5L-9 0L-7.8 -4.5L-4.5 -7.8Z" stroke="#7f0000" fill="none" stroke-width="1"></path></g><g transform="translate(634 93)"><path d="M0 -11L5.5 -9.5L9.5 -5.5L11 0L9.5 5.5L5.5 9.5L0 11L-5.5 9.5L-9.5 5.5L-11 0L-9.5 -5.5L-5.5 -9.5Z" stroke="#7f0000" fill="none" stroke-width="1"></path></g><g transform="translate(397 414)"><path d="M0 -5L2.5 -4.3L4.3 -2.5L5 0L4.3 2.5L2.5 4.3L0 5L-2.5 4.3L-4.3 2.5L-5 0L-4.3 -2.5L-2.5 -4.3Z" stroke="#7f0000" fill="none" stroke-width="1"></path></g><g transform="translate(24 57)"><path d="M0 -9L4.5 -7.8L7.8 -4.5L9 0L7.8 4.5L4.5 7.8L0 9L-4.5 7.8L-7.8 4.5L-9 0L-7.8 -4.5L-4.5 -7.8Z" stroke="#7f0000" fill="none" stroke-width="1"></path></g><g transform="translate(250 134)"><path d="M0 -8L4 -6.9L6.9 -4L8 0L6.9 4L4 6.9L0 8L-4 6.9L-6.9 4L-8 0L-6.9 -4L-4 -6.9Z" stroke="#7f0000" fill="none" stroke-width="1"></path></g><g transform="translate(703 442)"><path d="M0 -3L1.5 -2.6L2.6 -1.5L3 0L2.6 1.5L1.5 2.6L0 3L-1.5 2.6L-2.6 1.5L-3 0L-2.6 -1.5L-1.5 -2.6Z" stroke="#7f0000" fill="none" stroke-width="1"></path></g><g transform="translate(896 181)"><path d="M0 -3L1.5 -2.6L2.6 -1.5L3 0L2.6 1.5L1.5 2.6L0 3L-1.5 2.6L-2.6 1.5L-3 0L-2.6 -1.5L-1.5 -2.6Z" stroke="#7f0000" fill="none" stroke-width="1"></path></g><g transform="translate(70 144)"><path d="M0 -5L2.5 -4.3L4.3 -2.5L5 0L4.3 2.5L2.5 4.3L0 5L-2.5 4.3L-4.3 2.5L-5 0L-4.3 -2.5L-2.5 -4.3Z" stroke="#7f0000" fill="none" stroke-width="1"></path></g><g transform="translate(686 133)"><path d="M0 -4L2 -3.5L3.5 -2L4 0L3.5 2L2 3.5L0 4L-2 3.5L-3.5 2L-4 0L-3.5 -2L-2 -3.5Z" stroke="#7f0000" fill="none" stroke-width="1"></path></g><g transform="translate(818 189)"><path d="M0 -5L2.5 -4.3L4.3 -2.5L5 0L4.3 2.5L2.5 4.3L0 5L-2.5 4.3L-4.3 2.5L-5 0L-4.3 -2.5L-2.5 -4.3Z" stroke="#7f0000" fill="none" stroke-width="1"></path></g><g transform="translate(450 381)"><path d="M0 -10L5 -8.7L8.7 -5L10 0L8.7 5L5 8.7L0 10L-5 8.7L-8.7 5L-10 0L-8.7 -5L-5 -8.7Z" stroke="#7f0000" fill="none" stroke-width="1"></path></g><g transform="translate(897 51)"><path d="M0 -3L1.5 -2.6L2.6 -1.5L3 0L2.6 1.5L1.5 2.6L0 3L-1.5 2.6L-2.6 1.5L-3 0L-2.6 -1.5L-1.5 -2.6Z" stroke="#7f0000" fill="none" stroke-width="1"></path></g><g transform="translate(45 498)"><path d="M0 -10L5 -8.7L8.7 -5L10 0L8.7 5L5 8.7L0 10L-5 8.7L-8.7 5L-10 0L-8.7 -5L-5 -8.7Z" stroke="#7f0000" fill="none" stroke-width="1"></path></g><g transform="translate(555 532)"><path d="M0 -6L3 -5.2L5.2 -3L6 0L5.2 3L3 5.2L0 6L-3 5.2L-5.2 3L-6 0L-5.2 -3L-3 -5.2Z" stroke="#7f0000" fill="none" stroke-width="1"></path></g><g transform="translate(580 149)"><path d="M0 -4L2 -3.5L3.5 -2L4 0L3.5 2L2 3.5L0 4L-2 3.5L-3.5 2L-4 0L-3.5 -2L-2 -3.5Z" stroke="#7f0000" fill="none" stroke-width="1"></path></g><g transform="translate(947 464)"><path d="M0 -7L3.5 -6.1L6.1 -3.5L7 0L6.1 3.5L3.5 6.1L0 7L-3.5 6.1L-6.1 3.5L-7 0L-6.1 -3.5L-3.5 -6.1Z" stroke="#7f0000" fill="none" stroke-width="1"></path></g><g transform="translate(32 334)"><path d="M0 -6L3 -5.2L5.2 -3L6 0L5.2 3L3 5.2L0 6L-3 5.2L-5.2 3L-6 0L-5.2 -3L-3 -5.2Z" stroke="#7f0000" fill="none" stroke-width="1"></path></g><g transform="translate(360 104)"><path d="M0 -3L1.5 -2.6L2.6 -1.5L3 0L2.6 1.5L1.5 2.6L0 3L-1.5 2.6L-2.6 1.5L-3 0L-2.6 -1.5L-1.5 -2.6Z" stroke="#7f0000" fill="none" stroke-width="1"></path></g><g transform="translate(717 78)"><path d="M0 -3L1.5 -2.6L2.6 -1.5L3 0L2.6 1.5L1.5 2.6L0 3L-1.5 2.6L-2.6 1.5L-3 0L-2.6 -1.5L-1.5 -2.6Z" stroke="#7f0000" fill="none" stroke-width="1"></path></g><g transform="translate(958 102)"><path d="M0 -10L5 -8.7L8.7 -5L10 0L8.7 5L5 8.7L0 10L-5 8.7L-8.7 5L-10 0L-8.7 -5L-5 -8.7Z" stroke="#7f0000" fill="none" stroke-width="1"></path></g><g transform="translate(407 225)"><path d="M0 -5L2.5 -4.3L4.3 -2.5L5 0L4.3 2.5L2.5 4.3L0 5L-2.5 4.3L-4.3 2.5L-5 0L-4.3 -2.5L-2.5 -4.3Z" stroke="#7f0000" fill="none" stroke-width="1"></path></g><g transform="translate(146 481)"><path d="M0 -5L2.5 -4.3L4.3 -2.5L5 0L4.3 2.5L2.5 4.3L0 5L-2.5 4.3L-4.3 2.5L-5 0L-4.3 -2.5L-2.5 -4.3Z" stroke="#7f0000" fill="none" stroke-width="1"></path></g><g transform="translate(955 211)"><path d="M0 -11L5.5 -9.5L9.5 -5.5L11 0L9.5 5.5L5.5 9.5L0 11L-5.5 9.5L-9.5 5.5L-11 0L-9.5 -5.5L-5.5 -9.5Z" stroke="#7f0000" fill="none" stroke-width="1"></path></g><g transform="translate(544 242)"><path d="M0 -7L3.5 -6.1L6.1 -3.5L7 0L6.1 3.5L3.5 6.1L0 7L-3.5 6.1L-6.1 3.5L-7 0L-6.1 -3.5L-3.5 -6.1Z" stroke="#7f0000" fill="none" stroke-width="1"></path></g><g transform="translate(64 264)"><path d="M0 -6L3 -5.2L5.2 -3L6 0L5.2 3L3 5.2L0 6L-3 5.2L-5.2 3L-6 0L-5.2 -3L-3 -5.2Z" stroke="#7f0000" fill="none" stroke-width="1"></path></g><g transform="translate(507 436)"><path d="M0 -6L3 -5.2L5.2 -3L6 0L5.2 3L3 5.2L0 6L-3 5.2L-5.2 3L-6 0L-5.2 -3L-3 -5.2Z" stroke="#7f0000" fill="none" stroke-width="1"></path></g><g transform="translate(261 229)"><path d="M0 -3L1.5 -2.6L2.6 -1.5L3 0L2.6 1.5L1.5 2.6L0 3L-1.5 2.6L-2.6 1.5L-3 0L-2.6 -1.5L-1.5 -2.6Z" stroke="#7f0000" fill="none" stroke-width="1"></path></g><g transform="translate(281 403)"><path d="M0 -8L4 -6.9L6.9 -4L8 0L6.9 4L4 6.9L0 8L-4 6.9L-6.9 4L-8 0L-6.9 -4L-4 -6.9Z" stroke="#7f0000" fill="none" stroke-width="1"></path></g><g transform="translate(832 117)"><path d="M0 -7L3.5 -6.1L6.1 -3.5L7 0L6.1 3.5L3.5 6.1L0 7L-3.5 6.1L-6.1 3.5L-7 0L-6.1 -3.5L-3.5 -6.1Z" stroke="#7f0000" fill="none" stroke-width="1"></path></g><g transform="translate(924 1)"><path d="M0 -9L4.5 -7.8L7.8 -4.5L9 0L7.8 4.5L4.5 7.8L0 9L-4.5 7.8L-7.8 4.5L-9 0L-7.8 -4.5L-4.5 -7.8Z" stroke="#7f0000" fill="none" stroke-width="1"></path></g><g transform="translate(131 5)"><path d="M0 -8L4 -6.9L6.9 -4L8 0L6.9 4L4 6.9L0 8L-4 6.9L-6.9 4L-8 0L-6.9 -4L-4 -6.9Z" stroke="#7f0000" fill="none" stroke-width="1"></path></g><g transform="translate(376 315)"><path d="M0 -8L4 -6.9L6.9 -4L8 0L6.9 4L4 6.9L0 8L-4 6.9L-6.9 4L-8 0L-6.9 -4L-4 -6.9Z" stroke="#7f0000" fill="none" stroke-width="1"></path></g><g transform="translate(466 332)"><path d="M0 -11L5.5 -9.5L9.5 -5.5L11 0L9.5 5.5L5.5 9.5L0 11L-5.5 9.5L-9.5 5.5L-11 0L-9.5 -5.5L-5.5 -9.5Z" stroke="#7f0000" fill="none" stroke-width="1"></path></g><g transform="translate(39 428)"><path d="M0 -9L4.5 -7.8L7.8 -4.5L9 0L7.8 4.5L4.5 7.8L0 9L-4.5 7.8L-7.8 4.5L-9 0L-7.8 -4.5L-4.5 -7.8Z" stroke="#7f0000" fill="none" stroke-width="1"></path></g><g transform="translate(559 354)"><path d="M0 -4L2 -3.5L3.5 -2L4 0L3.5 2L2 3.5L0 4L-2 3.5L-3.5 2L-4 0L-3.5 -2L-2 -3.5Z" stroke="#7f0000" fill="none" stroke-width="1"></path></g><g transform="translate(158 272)"><path d="M0 -11L5.5 -9.5L9.5 -5.5L11 0L9.5 5.5L5.5 9.5L0 11L-5.5 9.5L-9.5 5.5L-11 0L-9.5 -5.5L-5.5 -9.5Z" stroke="#7f0000" fill="none" stroke-width="1"></path></g><g transform="translate(223 133)"><path d="M0 -4L2 -3.5L3.5 -2L4 0L3.5 2L2 3.5L0 4L-2 3.5L-3.5 2L-4 0L-3.5 -2L-2 -3.5Z" stroke="#7f0000" fill="none" stroke-width="1"></path></g><g transform="translate(358 481)"><path d="M0 -8L4 -6.9L6.9 -4L8 0L6.9 4L4 6.9L0 8L-4 6.9L-6.9 4L-8 0L-6.9 -4L-4 -6.9Z" stroke="#7f0000" fill="none" stroke-width="1"></path></g><g transform="translate(753 101)"><path d="M0 -9L4.5 -7.8L7.8 -4.5L9 0L7.8 4.5L4.5 7.8L0 9L-4.5 7.8L-7.8 4.5L-9 0L-7.8 -4.5L-4.5 -7.8Z" stroke="#7f0000" fill="none" stroke-width="1"></path></g><g transform="translate(63 330)"><path d="M0 -7L3.5 -6.1L6.1 -3.5L7 0L6.1 3.5L3.5 6.1L0 7L-3.5 6.1L-6.1 3.5L-7 0L-6.1 -3.5L-3.5 -6.1Z" stroke="#7f0000" fill="none" stroke-width="1"></path></g><g transform="translate(303 96)"><path d="M0 -3L1.5 -2.6L2.6 -1.5L3 0L2.6 1.5L1.5 2.6L0 3L-1.5 2.6L-2.6 1.5L-3 0L-2.6 -1.5L-1.5 -2.6Z" stroke="#7f0000" fill="none" stroke-width="1"></path></g><g transform="translate(642 120)"><path d="M0 -10L5 -8.7L8.7 -5L10 0L8.7 5L5 8.7L0 10L-5 8.7L-8.7 5L-10 0L-8.7 -5L-5 -8.7Z" stroke="#7f0000" fill="none" stroke-width="1"></path></g><g transform="translate(369 55)"><path d="M0 -9L4.5 -7.8L7.8 -4.5L9 0L7.8 4.5L4.5 7.8L0 9L-4.5 7.8L-7.8 4.5L-9 0L-7.8 -4.5L-4.5 -7.8Z" stroke="#7f0000" fill="none" stroke-width="1"></path></g><g transform="translate(666 84)"><path d="M0 -3L1.5 -2.6L2.6 -1.5L3 0L2.6 1.5L1.5 2.6L0 3L-1.5 2.6L-2.6 1.5L-3 0L-2.6 -1.5L-1.5 -2.6Z" stroke="#7f0000" fill="none" stroke-width="1"></path></g><g transform="translate(217 300)"><path d="M0 -8L4 -6.9L6.9 -4L8 0L6.9 4L4 6.9L0 8L-4 6.9L-6.9 4L-8 0L-6.9 -4L-4 -6.9Z" stroke="#7f0000" fill="none" stroke-width="1"></path></g><g transform="translate(775 191)"><path d="M0 -7L3.5 -6.1L6.1 -3.5L7 0L6.1 3.5L3.5 6.1L0 7L-3.5 6.1L-6.1 3.5L-7 0L-6.1 -3.5L-3.5 -6.1Z" stroke="#7f0000" fill="none" stroke-width="1"></path></g><g transform="translate(191 421)"><path d="M0 -9L4.5 -7.8L7.8 -4.5L9 0L7.8 4.5L4.5 7.8L0 9L-4.5 7.8L-7.8 4.5L-9 0L-7.8 -4.5L-4.5 -7.8Z" stroke="#7f0000" fill="none" stroke-width="1"></path></g><g transform="translate(276 285)"><path d="M0 -7L3.5 -6.1L6.1 -3.5L7 0L6.1 3.5L3.5 6.1L0 7L-3.5 6.1L-6.1 3.5L-7 0L-6.1 -3.5L-3.5 -6.1Z" stroke="#7f0000" fill="none" stroke-width="1"></path></g><g transform="translate(463 524)"><path d="M0 -11L5.5 -9.5L9.5 -5.5L11 0L9.5 5.5L5.5 9.5L0 11L-5.5 9.5L-9.5 5.5L-11 0L-9.5 -5.5L-5.5 -9.5Z" stroke="#7f0000" fill="none" stroke-width="1"></path></g><g transform="translate(708 169)"><path d="M0 -10L5 -8.7L8.7 -5L10 0L8.7 5L5 8.7L0 10L-5 8.7L-8.7 5L-10 0L-8.7 -5L-5 -8.7Z" stroke="#7f0000" fill="none" stroke-width="1"></path></g><g transform="translate(97 461)"><path d="M0 -8L4 -6.9L6.9 -4L8 0L6.9 4L4 6.9L0 8L-4 6.9L-6.9 4L-8 0L-6.9 -4L-4 -6.9Z" stroke="#7f0000" fill="none" stroke-width="1"></path></g><g transform="translate(163 529)"><path d="M0 -8L4 -6.9L6.9 -4L8 0L6.9 4L4 6.9L0 8L-4 6.9L-6.9 4L-8 0L-6.9 -4L-4 -6.9Z" stroke="#7f0000" fill="none" stroke-width="1"></path></g><g transform="translate(505 82)"><path d="M0 -3L1.5 -2.6L2.6 -1.5L3 0L2.6 1.5L1.5 2.6L0 3L-1.5 2.6L-2.6 1.5L-3 0L-2.6 -1.5L-1.5 -2.6Z" stroke="#7f0000" fill="none" stroke-width="1"></path></g><g transform="translate(274 192)"><path d="M0 -9L4.5 -7.8L7.8 -4.5L9 0L7.8 4.5L4.5 7.8L0 9L-4.5 7.8L-7.8 4.5L-9 0L-7.8 -4.5L-4.5 -7.8Z" stroke="#7f0000" fill="none" stroke-width="1"></path></g><g transform="translate(605 245)"><path d="M0 -7L3.5 -6.1L6.1 -3.5L7 0L6.1 3.5L3.5 6.1L0 7L-3.5 6.1L-6.1 3.5L-7 0L-6.1 -3.5L-3.5 -6.1Z" stroke="#7f0000" fill="none" stroke-width="1"></path></g><g transform="translate(890 517)"><path d="M0 -10L5 -8.7L8.7 -5L10 0L8.7 5L5 8.7L0 10L-5 8.7L-8.7 5L-10 0L-8.7 -5L-5 -8.7Z" stroke="#7f0000" fill="none" stroke-width="1"></path></g><g transform="translate(91 393)"><path d="M0 -8L4 -6.9L6.9 -4L8 0L6.9 4L4 6.9L0 8L-4 6.9L-6.9 4L-8 0L-6.9 -4L-4 -6.9Z" stroke="#7f0000" fill="none" stroke-width="1"></path></g><g transform="translate(566 317)"><path d="M0 -10L5 -8.7L8.7 -5L10 0L8.7 5L5 8.7L0 10L-5 8.7L-8.7 5L-10 0L-8.7 -5L-5 -8.7Z" stroke="#7f0000" fill="none" stroke-width="1"></path></g><g transform="translate(868 74)"><path d="M0 -11L5.5 -9.5L9.5 -5.5L11 0L9.5 5.5L5.5 9.5L0 11L-5.5 9.5L-9.5 5.5L-11 0L-9.5 -5.5L-5.5 -9.5Z" stroke="#7f0000" fill="none" stroke-width="1"></path></g><g transform="translate(238 88)"><path d="M0 -3L1.5 -2.6L2.6 -1.5L3 0L2.6 1.5L1.5 2.6L0 3L-1.5 2.6L-2.6 1.5L-3 0L-2.6 -1.5L-1.5 -2.6Z" stroke="#7f0000" fill="none" stroke-width="1"></path></g><g transform="translate(49 120)"><path d="M0 -9L4.5 -7.8L7.8 -4.5L9 0L7.8 4.5L4.5 7.8L0 9L-4.5 7.8L-7.8 4.5L-9 0L-7.8 -4.5L-4.5 -7.8Z" stroke="#7f0000" fill="none" stroke-width="1"></path></g><g transform="translate(578 496)"><path d="M0 -9L4.5 -7.8L7.8 -4.5L9 0L7.8 4.5L4.5 7.8L0 9L-4.5 7.8L-7.8 4.5L-9 0L-7.8 -4.5L-4.5 -7.8Z" stroke="#7f0000" fill="none" stroke-width="1"></path></g><g transform="translate(553 169)"><path d="M0 -9L4.5 -7.8L7.8 -4.5L9 0L7.8 4.5L4.5 7.8L0 9L-4.5 7.8L-7.8 4.5L-9 0L-7.8 -4.5L-4.5 -7.8Z" stroke="#7f0000" fill="none" stroke-width="1"></path></g><g transform="translate(650 180)"><path d="M0 -6L3 -5.2L5.2 -3L6 0L5.2 3L3 5.2L0 6L-3 5.2L-5.2 3L-6 0L-5.2 -3L-3 -5.2Z" stroke="#7f0000" fill="none" stroke-width="1"></path></g><g transform="translate(622 34)"><path d="M0 -10L5 -8.7L8.7 -5L10 0L8.7 5L5 8.7L0 10L-5 8.7L-8.7 5L-10 0L-8.7 -5L-5 -8.7Z" stroke="#7f0000" fill="none" stroke-width="1"></path></g><g transform="translate(823 68)"><path d="M0 -10L5 -8.7L8.7 -5L10 0L8.7 5L5 8.7L0 10L-5 8.7L-8.7 5L-10 0L-8.7 -5L-5 -8.7Z" stroke="#7f0000" fill="none" stroke-width="1"></path></g><g transform="translate(959 394)"><path d="M0 -4L2 -3.5L3.5 -2L4 0L3.5 2L2 3.5L0 4L-2 3.5L-3.5 2L-4 0L-3.5 -2L-2 -3.5Z" stroke="#7f0000" fill="none" stroke-width="1"></path></g><g transform="translate(630 485)"><path d="M0 -10L5 -8.7L8.7 -5L10 0L8.7 5L5 8.7L0 10L-5 8.7L-8.7 5L-10 0L-8.7 -5L-5 -8.7Z" stroke="#7f0000" fill="none" stroke-width="1"></path></g><g transform="translate(746 373)"><path d="M0 -5L2.5 -4.3L4.3 -2.5L5 0L4.3 2.5L2.5 4.3L0 5L-2.5 4.3L-4.3 2.5L-5 0L-4.3 -2.5L-2.5 -4.3Z" stroke="#7f0000" fill="none" stroke-width="1"></path></g><g transform="translate(445 443)"><path d="M0 -8L4 -6.9L6.9 -4L8 0L6.9 4L4 6.9L0 8L-4 6.9L-6.9 4L-8 0L-6.9 -4L-4 -6.9Z" stroke="#7f0000" fill="none" stroke-width="1"></path></g><g transform="translate(489 284)"><path d="M0 -10L5 -8.7L8.7 -5L10 0L8.7 5L5 8.7L0 10L-5 8.7L-8.7 5L-10 0L-8.7 -5L-5 -8.7Z" stroke="#7f0000" fill="none" stroke-width="1"></path></g><g transform="translate(179 79)"><path d="M0 -6L3 -5.2L5.2 -3L6 0L5.2 3L3 5.2L0 6L-3 5.2L-5.2 3L-6 0L-5.2 -3L-3 -5.2Z" stroke="#7f0000" fill="none" stroke-width="1"></path></g><g transform="translate(415 277)"><path d="M0 -4L2 -3.5L3.5 -2L4 0L3.5 2L2 3.5L0 4L-2 3.5L-3.5 2L-4 0L-3.5 -2L-2 -3.5Z" stroke="#7f0000" fill="none" stroke-width="1"></path></g><g transform="translate(831 484)"><path d="M0 -3L1.5 -2.6L2.6 -1.5L3 0L2.6 1.5L1.5 2.6L0 3L-1.5 2.6L-2.6 1.5L-3 0L-2.6 -1.5L-1.5 -2.6Z" stroke="#7f0000" fill="none" stroke-width="1"></path></g><g transform="translate(230 451)"><path d="M0 -9L4.5 -7.8L7.8 -4.5L9 0L7.8 4.5L4.5 7.8L0 9L-4.5 7.8L-7.8 4.5L-9 0L-7.8 -4.5L-4.5 -7.8Z" stroke="#7f0000" fill="none" stroke-width="1"></path></g><g transform="translate(148 102)"><path d="M0 -5L2.5 -4.3L4.3 -2.5L5 0L4.3 2.5L2.5 4.3L0 5L-2.5 4.3L-4.3 2.5L-5 0L-4.3 -2.5L-2.5 -4.3Z" stroke="#7f0000" fill="none" stroke-width="1"></path></g><g transform="translate(307 148)"><path d="M0 -9L4.5 -7.8L7.8 -4.5L9 0L7.8 4.5L4.5 7.8L0 9L-4.5 7.8L-7.8 4.5L-9 0L-7.8 -4.5L-4.5 -7.8Z" stroke="#7f0000" fill="none" stroke-width="1"></path></g><g transform="translate(132 535)"><path d="M0 -3L1.5 -2.6L2.6 -1.5L3 0L2.6 1.5L1.5 2.6L0 3L-1.5 2.6L-2.6 1.5L-3 0L-2.6 -1.5L-1.5 -2.6Z" stroke="#7f0000" fill="none" stroke-width="1"></path></g><g transform="translate(929 440)"><path d="M0 -11L5.5 -9.5L9.5 -5.5L11 0L9.5 5.5L5.5 9.5L0 11L-5.5 9.5L-9.5 5.5L-11 0L-9.5 -5.5L-5.5 -9.5Z" stroke="#7f0000" fill="none" stroke-width="1"></path></g><g transform="translate(96 242)"><path d="M0 -8L4 -6.9L6.9 -4L8 0L6.9 4L4 6.9L0 8L-4 6.9L-6.9 4L-8 0L-6.9 -4L-4 -6.9Z" stroke="#7f0000" fill="none" stroke-width="1"></path></g><g transform="translate(129 395)"><path d="M0 -11L5.5 -9.5L9.5 -5.5L11 0L9.5 5.5L5.5 9.5L0 11L-5.5 9.5L-9.5 5.5L-11 0L-9.5 -5.5L-5.5 -9.5Z" stroke="#7f0000" fill="none" stroke-width="1"></path></g><g transform="translate(242 489)"><path d="M0 -7L3.5 -6.1L6.1 -3.5L7 0L6.1 3.5L3.5 6.1L0 7L-3.5 6.1L-6.1 3.5L-7 0L-6.1 -3.5L-3.5 -6.1Z" stroke="#7f0000" fill="none" stroke-width="1"></path></g><g transform="translate(128 267)"><path d="M0 -10L5 -8.7L8.7 -5L10 0L8.7 5L5 8.7L0 10L-5 8.7L-8.7 5L-10 0L-8.7 -5L-5 -8.7Z" stroke="#7f0000" fill="none" stroke-width="1"></path></g><g transform="translate(884 414)"><path d="M0 -11L5.5 -9.5L9.5 -5.5L11 0L9.5 5.5L5.5 9.5L0 11L-5.5 9.5L-9.5 5.5L-11 0L-9.5 -5.5L-5.5 -9.5Z" stroke="#7f0000" fill="none" stroke-width="1"></path></g><g transform="translate(366 379)"><path d="M0 -6L3 -5.2L5.2 -3L6 0L5.2 3L3 5.2L0 6L-3 5.2L-5.2 3L-6 0L-5.2 -3L-3 -5.2Z" stroke="#7f0000" fill="none" stroke-width="1"></path></g><g transform="translate(624 4)"><path d="M0 -8L4 -6.9L6.9 -4L8 0L6.9 4L4 6.9L0 8L-4 6.9L-6.9 4L-8 0L-6.9 -4L-4 -6.9Z" stroke="#7f0000" fill="none" stroke-width="1"></path></g><g transform="translate(769 12)"><path d="M0 -9L4.5 -7.8L7.8 -4.5L9 0L7.8 4.5L4.5 7.8L0 9L-4.5 7.8L-7.8 4.5L-9 0L-7.8 -4.5L-4.5 -7.8Z" stroke="#7f0000" fill="none" stroke-width="1"></path></g><g transform="translate(695 5)"><path d="M0 -8L4 -6.9L6.9 -4L8 0L6.9 4L4 6.9L0 8L-4 6.9L-6.9 4L-8 0L-6.9 -4L-4 -6.9Z" stroke="#7f0000" fill="none" stroke-width="1"></path></g><g transform="translate(472 121)"><path d="M0 -6L3 -5.2L5.2 -3L6 0L5.2 3L3 5.2L0 6L-3 5.2L-5.2 3L-6 0L-5.2 -3L-3 -5.2Z" stroke="#7f0000" fill="none" stroke-width="1"></path></g><g transform="translate(922 78)"><path d="M0 -6L3 -5.2L5.2 -3L6 0L5.2 3L3 5.2L0 6L-3 5.2L-5.2 3L-6 0L-5.2 -3L-3 -5.2Z" stroke="#7f0000" fill="none" stroke-width="1"></path></g><g transform="translate(743 2)"><path d="M0 -7L3.5 -6.1L6.1 -3.5L7 0L6.1 3.5L3.5 6.1L0 7L-3.5 6.1L-6.1 3.5L-7 0L-6.1 -3.5L-3.5 -6.1Z" stroke="#7f0000" fill="none" stroke-width="1"></path></g><g transform="translate(528 505)"><path d="M0 -8L4 -6.9L6.9 -4L8 0L6.9 4L4 6.9L0 8L-4 6.9L-6.9 4L-8 0L-6.9 -4L-4 -6.9Z" stroke="#7f0000" fill="none" stroke-width="1"></path></g><g transform="translate(241 402)"><path d="M0 -10L5 -8.7L8.7 -5L10 0L8.7 5L5 8.7L0 10L-5 8.7L-8.7 5L-10 0L-8.7 -5L-5 -8.7Z" stroke="#7f0000" fill="none" stroke-width="1"></path></g><g transform="translate(841 90)"><path d="M0 -4L2 -3.5L3.5 -2L4 0L3.5 2L2 3.5L0 4L-2 3.5L-3.5 2L-4 0L-3.5 -2L-2 -3.5Z" stroke="#7f0000" fill="none" stroke-width="1"></path></g><g transform="translate(329 105)"><path d="M0 -9L4.5 -7.8L7.8 -4.5L9 0L7.8 4.5L4.5 7.8L0 9L-4.5 7.8L-7.8 4.5L-9 0L-7.8 -4.5L-4.5 -7.8Z" stroke="#7f0000" fill="none" stroke-width="1"></path></g><g transform="translate(121 474)"><path d="M0 -9L4.5 -7.8L7.8 -4.5L9 0L7.8 4.5L4.5 7.8L0 9L-4.5 7.8L-7.8 4.5L-9 0L-7.8 -4.5L-4.5 -7.8Z" stroke="#7f0000" fill="none" stroke-width="1"></path></g><g transform="translate(689 191)"><path d="M0 -5L2.5 -4.3L4.3 -2.5L5 0L4.3 2.5L2.5 4.3L0 5L-2.5 4.3L-4.3 2.5L-5 0L-4.3 -2.5L-2.5 -4.3Z" stroke="#7f0000" fill="none" stroke-width="1"></path></g><g transform="translate(844 509)"><path d="M0 -4L2 -3.5L3.5 -2L4 0L3.5 2L2 3.5L0 4L-2 3.5L-3.5 2L-4 0L-3.5 -2L-2 -3.5Z" stroke="#7f0000" fill="none" stroke-width="1"></path></g><g transform="translate(215 32)"><path d="M0 -11L5.5 -9.5L9.5 -5.5L11 0L9.5 5.5L5.5 9.5L0 11L-5.5 9.5L-9.5 5.5L-11 0L-9.5 -5.5L-5.5 -9.5Z" stroke="#7f0000" fill="none" stroke-width="1"></path></g><g transform="translate(189 475)"><path d="M0 -4L2 -3.5L3.5 -2L4 0L3.5 2L2 3.5L0 4L-2 3.5L-3.5 2L-4 0L-3.5 -2L-2 -3.5Z" stroke="#7f0000" fill="none" stroke-width="1"></path></g><g transform="translate(513 3)"><path d="M0 -7L3.5 -6.1L6.1 -3.5L7 0L6.1 3.5L3.5 6.1L0 7L-3.5 6.1L-6.1 3.5L-7 0L-6.1 -3.5L-3.5 -6.1Z" stroke="#7f0000" fill="none" stroke-width="1"></path></g><g transform="translate(472 360)"><path d="M0 -11L5.5 -9.5L9.5 -5.5L11 0L9.5 5.5L5.5 9.5L0 11L-5.5 9.5L-9.5 5.5L-11 0L-9.5 -5.5L-5.5 -9.5Z" stroke="#7f0000" fill="none" stroke-width="1"></path></g><g transform="translate(108 525)"><path d="M0 -9L4.5 -7.8L7.8 -4.5L9 0L7.8 4.5L4.5 7.8L0 9L-4.5 7.8L-7.8 4.5L-9 0L-7.8 -4.5L-4.5 -7.8Z" stroke="#7f0000" fill="none" stroke-width="1"></path></g><g transform="translate(668 2)"><path d="M0 -5L2.5 -4.3L4.3 -2.5L5 0L4.3 2.5L2.5 4.3L0 5L-2.5 4.3L-4.3 2.5L-5 0L-4.3 -2.5L-2.5 -4.3Z" stroke="#7f0000" fill="none" stroke-width="1"></path></g><g transform="translate(680 237)"><path d="M0 -9L4.5 -7.8L7.8 -4.5L9 0L7.8 4.5L4.5 7.8L0 9L-4.5 7.8L-7.8 4.5L-9 0L-7.8 -4.5L-4.5 -7.8Z" stroke="#7f0000" fill="none" stroke-width="1"></path></g><g transform="translate(865 319)"><path d="M0 -3L1.5 -2.6L2.6 -1.5L3 0L2.6 1.5L1.5 2.6L0 3L-1.5 2.6L-2.6 1.5L-3 0L-2.6 -1.5L-1.5 -2.6Z" stroke="#7f0000" fill="none" stroke-width="1"></path></g><g transform="translate(745 207)"><path d="M0 -6L3 -5.2L5.2 -3L6 0L5.2 3L3 5.2L0 6L-3 5.2L-5.2 3L-6 0L-5.2 -3L-3 -5.2Z" stroke="#7f0000" fill="none" stroke-width="1"></path></g><g transform="translate(126 141)"><path d="M0 -3L1.5 -2.6L2.6 -1.5L3 0L2.6 1.5L1.5 2.6L0 3L-1.5 2.6L-2.6 1.5L-3 0L-2.6 -1.5L-1.5 -2.6Z" stroke="#7f0000" fill="none" stroke-width="1"></path></g><g transform="translate(277 479)"><path d="M0 -10L5 -8.7L8.7 -5L10 0L8.7 5L5 8.7L0 10L-5 8.7L-8.7 5L-10 0L-8.7 -5L-5 -8.7Z" stroke="#7f0000" fill="none" stroke-width="1"></path></g><g transform="translate(771 121)"><path d="M0 -6L3 -5.2L5.2 -3L6 0L5.2 3L3 5.2L0 6L-3 5.2L-5.2 3L-6 0L-5.2 -3L-3 -5.2Z" stroke="#7f0000" fill="none" stroke-width="1"></path></g><g transform="translate(75 500)"><path d="M0 -4L2 -3.5L3.5 -2L4 0L3.5 2L2 3.5L0 4L-2 3.5L-3.5 2L-4 0L-3.5 -2L-2 -3.5Z" stroke="#7f0000" fill="none" stroke-width="1"></path></g><g transform="translate(661 365)"><path d="M0 -5L2.5 -4.3L4.3 -2.5L5 0L4.3 2.5L2.5 4.3L0 5L-2.5 4.3L-4.3 2.5L-5 0L-4.3 -2.5L-2.5 -4.3Z" stroke="#7f0000" fill="none" stroke-width="1"></path></g><g transform="translate(842 163)"><path d="M0 -9L4.5 -7.8L7.8 -4.5L9 0L7.8 4.5L4.5 7.8L0 9L-4.5 7.8L-7.8 4.5L-9 0L-7.8 -4.5L-4.5 -7.8Z" stroke="#7f0000" fill="none" stroke-width="1"></path></g><g transform="translate(348 32)"><path d="M0 -3L1.5 -2.6L2.6 -1.5L3 0L2.6 1.5L1.5 2.6L0 3L-1.5 2.6L-2.6 1.5L-3 0L-2.6 -1.5L-1.5 -2.6Z" stroke="#7f0000" fill="none" stroke-width="1"></path></g></g></svg>